<?xml version="1.0" encoding="UTF-8"?>
<svg width="88px" height="88px" viewBox="0 0 88 88" version="1.1" xmlns="http://www.w3.org/2000/svg" xmlns:xlink="http://www.w3.org/1999/xlink">
    <!-- Generator: Sketch 55.1 (78136) - https://sketchapp.com -->
    <title>convenience_ico_transfer</title>
    <desc>Created with Sketch.</desc>
    <defs>
        <polygon id="path-1" points="0 0 87.9995 0 87.9995 60.5817 0 60.5817"></polygon>
    </defs>
    <g id="页面1" stroke="none" stroke-width="1" fill="none" fill-rule="evenodd">
        <g id="便民-展开" transform="translate(-242.000000, -304.000000)">
            <g id="编组-2备份" transform="translate(202.000000, 264.000000)">
                <g id="convenience_ico_transfer" transform="translate(40.000000, 40.000000)">
                    <g id="编组">
                        <mask id="mask-2" fill="white">
                            <use xlink:href="#path-1"></use>
                        </mask>
                        <g id="Clip-2"></g>
                        <path d="M87.9485,41.9697 C86.8865,18.6127 67.6195,-0.0003 43.9995,-0.0003 C20.3805,-0.0003 1.1135,18.6127 0.0515,41.9697 C0.0205,42.6437 -0.0005,43.3197 -0.0005,43.9997 C-0.0005,49.8677 1.1575,55.4627 3.2425,60.5817 C14.4175,52.9227 28.5795,48.3327 43.9995,48.3327 C59.4205,48.3327 73.5825,52.9227 84.7575,60.5817 C86.8425,55.4627 87.9995,49.8677 87.9995,43.9997 C87.9995,43.3197 87.9795,42.6437 87.9485,41.9697" id="Fill-1" fill="#F7A663" mask="url(#mask-2)"></path>
                    </g>
                    <path d="M43.9998,88 C62.4328,88 78.2088,76.661 84.7568,60.582 C73.5828,52.923 59.4198,48.333 43.9998,48.333 C28.5798,48.333 14.4178,52.923 3.2428,60.582 C9.7918,76.661 25.5668,88 43.9998,88" id="Fill-3" fill="#FF6700"></path>
                    <path d="M36.804,41.8378 L24.331,41.8378 C22.396,41.8378 20.826,40.2698 20.826,38.3338 L20.826,25.8598 C20.826,23.9248 22.396,22.3568 24.331,22.3568 L36.804,22.3568 C38.74,22.3568 40.309,23.9248 40.309,25.8598 L40.309,38.3338 C40.309,40.2698 38.74,41.8378 36.804,41.8378" id="Fill-5" fill="#FFFFFF"></path>
                    <path d="M66.7918,71.8261 L54.3198,71.8261 C52.3838,71.8261 50.8138,70.2571 50.8138,68.3211 L50.8138,55.8481 C50.8138,53.9131 52.3838,52.3441 54.3198,52.3441 L66.7918,52.3441 C68.7278,52.3441 70.2968,53.9131 70.2968,55.8481 L70.2968,68.3211 C70.2968,70.2571 68.7278,71.8261 66.7918,71.8261" id="Fill-7" fill="#FFFFFF"></path>
                    <path d="M58.5501,25.2402 L54.3621,25.2402 L54.9671,24.7182 C55.4891,24.2662 55.5471,23.4772 55.0961,22.9552 C54.6441,22.4302 53.8551,22.3742 53.3331,22.8252 L50.2321,25.5022 C49.9691,25.7292 49.8131,26.0552 49.8001,26.4022 C49.7871,26.7502 49.9201,27.0872 50.1651,27.3322 L52.9901,30.1562 C53.2341,30.4002 53.5541,30.5222 53.8741,30.5222 C54.1941,30.5222 54.5141,30.4002 54.7581,30.1562 C55.2461,29.6682 55.2461,28.8772 54.7581,28.3882 L54.1091,27.7402 L58.5501,27.7402 C63.6381,27.7402 67.8491,31.8772 67.9371,36.9402 L67.9371,43.7352 C67.9371,44.4262 68.4971,44.9852 69.1871,44.9852 C69.8781,44.9852 70.4371,44.4262 70.4371,43.7352 L70.4371,36.9192 C70.3251,30.4792 64.9921,25.2402 58.5501,25.2402" id="Fill-9" fill="#FFFFFF"></path>
                    <path d="M41.198,67.2753 L38.373,64.4513 C37.885,63.9623 37.093,63.9623 36.606,64.4513 C36.117,64.9393 36.117,65.7303 36.606,66.2183 L37.253,66.8663 L32.813,66.8663 C27.725,66.8663 23.514,62.7293 23.426,57.6663 L23.426,50.8713 C23.426,50.1803 22.866,49.6213 22.176,49.6213 C21.486,49.6213 20.926,50.1803 20.926,50.8713 L20.926,57.6873 C21.038,64.1273 26.37,69.3663 32.813,69.3663 L37.002,69.3663 L36.397,69.8883 C35.874,70.3393 35.816,71.1293 36.267,71.6513 C36.514,71.9383 36.864,72.0853 37.214,72.0853 C37.504,72.0853 37.794,71.9853 38.031,71.7813 L41.131,69.1053 C41.394,68.8793 41.551,68.5513 41.563,68.2053 C41.576,67.8573 41.444,67.5203 41.198,67.2753" id="Fill-11" fill="#FFFFFF"></path>
                </g>
            </g>
        </g>
    </g>
</svg>