<?xml version="1.0" encoding="UTF-8"?>
<svg width="88px" height="88px" viewBox="0 0 88 88" version="1.1" xmlns="http://www.w3.org/2000/svg" xmlns:xlink="http://www.w3.org/1999/xlink">
    <!-- Generator: Sketch 55.1 (78136) - https://sketchapp.com -->
    <title>convenience_ico_love</title>
    <desc>Created with Sketch.</desc>
    <defs>
        <polygon id="path-1" points="0.0004 0 88 0 88 60.5817 0.0004 60.5817"></polygon>
    </defs>
    <g id="页面1" stroke="none" stroke-width="1" fill="none" fill-rule="evenodd">
        <g id="便民-展开" transform="translate(-64.000000, -482.000000)">
            <g id="编组-2备份-4" transform="translate(24.000000, 442.000000)">
                <g id="convenience_ico_love" transform="translate(40.000000, 40.000000)">
                    <g id="编组">
                        <mask id="mask-2" fill="white">
                            <use xlink:href="#path-1"></use>
                        </mask>
                        <g id="Clip-2"></g>
                        <path d="M87.9484,41.9697 C86.8864,18.6127 67.6194,-0.0003 44.0004,-0.0003 C20.3804,-0.0003 1.1134,18.6127 0.0514,41.9697 C0.0204,42.6437 0.0004,43.3197 0.0004,43.9997 C0.0004,49.8677 1.1574,55.4627 3.2424,60.5817 C14.4174,52.9227 28.5794,48.3327 44.0004,48.3327 C59.4204,48.3327 73.5824,52.9227 84.7574,60.5817 C86.8424,55.4627 88.0004,49.8677 88.0004,43.9997 C88.0004,43.3197 87.9794,42.6437 87.9484,41.9697" id="Fill-1" fill="#ED6E95" mask="url(#mask-2)"></path>
                    </g>
                    <path d="M44.0002,88 C62.4332,88 78.2082,76.661 84.7572,60.582 C73.5822,52.923 59.4202,48.333 44.0002,48.333 C28.5802,48.333 14.4172,52.923 3.2432,60.582 C9.7912,76.661 25.5672,88 44.0002,88" id="Fill-3" fill="#E80059"></path>
                    <path d="M72.0814295,34.2413477 L72.0049587,34.1626906 C70.04417,32.1685031 66.864751,32.1685031 64.9049427,34.1626906 L64.4039611,34.671648 L63.90396,34.1626906 C61.9421909,32.1685031 58.7637523,32.1685031 56.803944,34.1626906 C54.8735474,36.1115346 54.8392336,39.3087122 56.7264928,41.3019743 C56.7519831,41.3288102 56.7774733,41.3556462 56.803944,41.3824821 L57.3039451,41.8914395 C57.3039451,41.8914395 61.7706219,44.7998994 62.8343497,48.66705 C68.3814211,46.1814873 71.4539771,42.1894109 72.0049587,41.3834075 C73.5382955,39.1402936 73.969669,36.2346098 72.0814295,34.2413477" id="Fill-5" fill="#FFFFFF"></path>
                    <path d="M31.6733701,29.7351443 C31.4016531,30.1111394 30.9974381,30.3589543 30.5365754,30.4339635 C28.7488121,30.7292525 27.4084698,31.4214253 26.1919842,32.6804391 C24.02977,34.9145715 23.5727478,37.2142182 23.4940171,38.3849302 C23.4316086,39.2907365 22.6663845,40 21.7504199,40 L21.6313637,39.9962021 C20.6702729,39.9306878 19.9396135,39.104638 20.0039422,38.1532565 C20.1153174,36.5153991 20.7394023,33.3146935 23.6639602,30.2896421 C25.4152385,28.4808779 27.4161508,27.442144 29.9633774,27.0243717 C30.4184793,26.9484131 30.8841427,27.0509572 31.2633943,27.3187113 C31.6455263,27.5864653 31.8980406,27.987147 31.9758112,28.445747 C32.0526217,28.9014987 31.945087,29.3591492 31.6733701,29.7351443 M55.1390547,44.7316024 L55.0565609,44.6753395 L54.9808606,44.610494 L54.8605167,44.5084579 L54.7780228,44.4388444 L54.7042636,44.3606485 L54.0414013,43.6578386 L54.0287846,43.644488 L54.0181089,43.6320911 C50.9726302,40.2839696 51.0279496,34.8960783 54.1365119,31.6299672 C55.7252463,29.9468471 57.8545581,29.0199391 60.1333293,29.0189855 C60.4254546,29.0189855 60.7136978,29.0399649 61,29.0704804 C55.8174453,23.6301405 47.4506281,23.6434911 42.2865132,29.1124392 L40.9627296,30.5123373 L39.640887,29.1124392 C34.4593028,23.6291869 26.0623996,23.6291869 20.885668,29.1124392 C15.7856072,34.4726758 15.6943787,43.263998 20.6808892,48.7462966 C20.7478548,48.8197245 20.8157909,48.8931524 20.885668,48.9656267 L22.2075106,50.3655249 C22.2075106,50.3655249 34.0060719,58.3663051 36.8166858,69 C49.4518318,63.1047886 57.2217818,54.134188 60.0566586,50.3521743 C58.7231698,47.2262438 55.1769049,44.7573498 55.1390547,44.7316024" id="Fill-7" fill="#FFFFFF"></path>
                </g>
            </g>
        </g>
    </g>
</svg>