<?xml version="1.0" encoding="UTF-8"?>
<svg width="170px" height="174px" viewBox="0 0 170 174" version="1.1" xmlns="http://www.w3.org/2000/svg" xmlns:xlink="http://www.w3.org/1999/xlink">
    <!-- Generator: Sketch 55.1 (78136) - https://sketchapp.com -->
    <title>image_Login prompt</title>
    <desc>Created with Sketch.</desc>
    <g id="页面1" stroke="none" stroke-width="1" fill="none" fill-rule="evenodd">
        <g id="新闻-详情-分享（未登陆）" transform="translate(-290.000000, -367.000000)">
            <g id="登陆弹窗" transform="translate(105.000000, 320.000000)">
                <g id="image_Login-prompt" transform="translate(185.000000, 47.000000)">
                    <g id="编组" transform="translate(6.000000, 6.000000)" opacity="0.14">
                        <path d="M123.029338,41.6142213 C123.029338,41.660918 123.008801,41.7003184 123,41.7440966 C127.215815,45.6155479 132.831034,48 139.019803,48 C145.189503,48 150.788586,45.6301406 155,41.7805784 C154.967729,37.6333245 153.358561,33.7297692 150.430667,30.7616079 C147.439697,27.7306978 143.440981,26.0408596 139.172358,26 C139.122485,26 139.072611,26.0072964 139.02127,26.0072964 C139.011002,26.0072964 138.999267,26.0072964 138.988998,26.0072964 C130.35934,26.048156 123.187761,32.9840807 123.029338,41.6142213" id="Fill-1" fill="#2389E3"></path>
                        <path d="M139.584985,23.9954883 C144.172738,23.9172859 147.956017,20.2101911 147.999624,15.5797063 C148.020676,13.3103326 147.156055,11.1672859 145.565153,9.54608988 C143.972748,7.92639774 141.846532,7.02105449 139.577467,7.00150389 C139.551904,7.00150389 139.523334,7 139.497772,7 C134.846864,7 131.042533,10.7642427 131.00043,15.4248054 C130.977874,17.6956829 131.843999,19.8372258 133.433397,21.4584218 C135.015277,23.0690906 137.124952,23.9699222 139.380484,24 C139.41958,24 139.458676,23.9954883 139.496268,23.9954883 C139.526342,23.9954883 139.554912,23.9954883 139.584985,23.9954883" id="Fill-3" fill="#2389E3"></path>
                        <g fill="#2389E3" id="Fill-5">
                            <path d="M56.6454536,105.567949 C56.6454536,106.539804 55.8562036,107.32724 54.8839179,107.32724 L29.018775,107.32724 C22.5158821,107.32724 17.2429893,102.058149 17.2429893,95.55814 L17.2429893,63.4020491 C17.2429893,62.4287309 18.0322393,61.6412945 19.004525,61.6412945 L44.8696679,61.6412945 C51.3725607,61.6412945 56.6454536,66.9103855 56.6454536,73.4118582 L56.6454536,105.567949 Z M139.446418,120.128204 C127.972275,120.128204 118.419275,128.314322 116.291668,139.159867 L65.8118821,107.518976 C70.8622036,101.203385 73.8888821,93.1987582 73.8888821,84.4842673 C73.8888821,75.77124 70.8622036,67.7666127 65.8118821,61.4510218 L116.613811,29.6066855 C117.568525,33.2804127 119.372525,36.6101855 121.823739,39.3647491 C122.585168,32.0158309 127.891739,26.0017491 134.832454,24.1136582 C133.904096,23.6321218 133.044561,23.0071491 132.290454,22.2402036 C130.411775,20.3286945 129.392632,17.8009945 129.417525,15.1240036 C129.468775,9.62658545 133.958275,5.18884 139.444954,5.18884 C139.477168,5.18884 139.507918,5.19030364 139.538668,5.19030364 C142.218311,5.21518545 144.726632,6.28071273 146.605311,8.19075818 C148.482525,10.1022673 149.503132,12.6299673 149.476775,15.3069582 C149.441632,19.1372945 147.246668,22.44804 144.064775,24.10634 C147.079739,24.9157309 149.842846,26.4979218 152.087596,28.7841218 C154.935632,31.6835855 156.657632,35.3880491 157.061775,39.3735309 C160.776668,35.2050945 163.052168,29.7267036 163.052168,23.7053036 C163.052168,10.6745491 152.484418,0.110021818 139.446418,0.110021818 C126.409882,0.110021818 115.840668,10.6745491 115.840668,23.7053036 C115.840668,24.9347582 115.959275,26.1334764 116.142311,27.3117036 L64.381275,59.7575945 C57.6192036,52.2667036 47.8333821,47.5567218 36.9449536,47.5567218 C16.5401321,47.5567218 -0.000439285714,64.0899582 -0.000439285714,84.4842673 C-0.000439285714,104.88004 16.5401321,121.413276 36.9449536,121.413276 C47.8319179,121.413276 57.6192036,116.701831 64.3798107,109.212404 L115.951954,141.53974 C115.886061,142.259849 115.840668,142.985813 115.840668,143.722022 C115.840668,149.740495 118.114704,155.214495 121.823739,159.382931 C122.585168,152.032549 127.891739,146.019931 134.832454,144.133304 C133.904096,143.650304 133.044561,143.026795 132.290454,142.256922 C130.411775,140.346876 129.392632,137.819176 129.417525,135.142185 C129.468775,129.644767 133.958275,125.207022 139.444954,125.207022 C139.477168,125.207022 139.507918,125.208485 139.538668,125.208485 C142.218311,125.233367 144.726632,126.298895 146.605311,128.20894 C148.482525,130.120449 149.503132,132.648149 149.476775,135.32514 C149.441632,139.155476 147.246668,142.466222 144.064775,144.125985 C147.079739,144.933913 149.842846,146.516104 152.087596,148.80084 C154.935632,151.701767 156.657632,155.407695 157.061775,159.391713 C160.776668,155.223276 163.052168,149.746349 163.052168,143.722022 C163.052168,130.691267 152.484418,120.128204 139.446418,120.128204 L139.446418,120.128204 Z"></path>
                        </g>
                        <path d="M139.172358,146 C139.121018,146.001459 139.072611,146.007296 139.02127,146.007296 L138.988998,146.007296 C130.357873,146.048156 123.187761,152.984081 123.029338,161.614221 C123.027871,161.660918 123.007334,161.700318 123,161.744097 C127.215815,165.615548 132.831034,168 139.019803,168 C145.189503,168 150.788586,165.630141 155,161.780578 C154.967729,157.634784 153.358561,153.729769 150.430667,150.763067 C147.439697,147.732157 143.440981,146.04086 139.172358,146" id="Fill-7" fill="#2389E3"></path>
                        <path d="M139.584985,143.993985 C144.172738,143.915789 147.956017,140.209023 147.999624,135.578947 C148.020676,133.309774 147.156055,131.166917 145.565153,129.547368 C143.972748,127.924812 141.846532,127.022556 139.577467,127.001504 C139.551904,127.001504 139.523334,127 139.497772,127 C134.846864,127 131.042533,130.762406 131.00043,135.42406 C130.977874,137.694737 131.843999,139.83609 133.433397,141.457143 C135.015277,143.067669 137.124952,143.968421 139.380484,144 C139.41958,143.998496 139.458676,143.993985 139.496268,143.993985 L139.584985,143.993985 Z" id="Fill-9" fill="#2389E3"></path>
                        <path d="M41.2472499,88 L28.7541894,88 C28.3396731,88 28,88.3632148 28,88.8083462 L28,89.1916538 C28,89.6367852 28.3396731,90 28.7541894,90 L41.2472499,90 C41.6617662,90 42,89.6367852 42,89.1916538 L42,88.8083462 C42,88.3632148 41.6617662,88 41.2472499,88" id="Fill-11" fill="#666666"></path>
                        <path d="M45.2313583,80 L27.7686417,80 C27.3453744,80 27,80.3632148 27,80.8083462 L27,81.1916538 C27,81.6367852 27.3453744,82 27.7686417,82 L45.2313583,82 C45.6546256,82 46,81.6367852 46,81.1916538 L46,80.8083462 C46,80.3632148 45.6546256,80 45.2313583,80" id="Fill-13" fill="#666666"></path>
                    </g>
                    <g id="编组备份">
                        <path d="M123.029338,41.6142213 C123.029338,41.660918 123.008801,41.7003184 123,41.7440966 C127.215815,45.6155479 132.831034,48 139.019803,48 C145.189503,48 150.788586,45.6301406 155,41.7805784 C154.967729,37.6333245 153.358561,33.7297692 150.430667,30.7616079 C147.439697,27.7306978 143.440981,26.0408596 139.172358,26 C139.122485,26 139.072611,26.0072964 139.02127,26.0072964 C139.011002,26.0072964 138.999267,26.0072964 138.988998,26.0072964 C130.35934,26.048156 123.187761,32.9840807 123.029338,41.6142213" id="Fill-1" fill="#92CCFF"></path>
                        <path d="M139.584985,23.9954883 C144.172738,23.9172859 147.956017,20.2101911 147.999624,15.5797063 C148.020676,13.3103326 147.156055,11.1672859 145.565153,9.54608988 C143.972748,7.92639774 141.846532,7.02105449 139.577467,7.00150389 C139.551904,7.00150389 139.523334,7 139.497772,7 C134.846864,7 131.042533,10.7642427 131.00043,15.4248054 C130.977874,17.6956829 131.843999,19.8372258 133.433397,21.4584218 C135.015277,23.0690906 137.124952,23.9699222 139.380484,24 C139.41958,24 139.458676,23.9954883 139.496268,23.9954883 C139.526342,23.9954883 139.554912,23.9954883 139.584985,23.9954883" id="Fill-3" fill="#92CCFF"></path>
                        <g id="编组" fill="#92CCFF">
                            <path d="M56.6454536,105.567949 C56.6454536,106.539804 55.8562036,107.32724 54.8839179,107.32724 L29.018775,107.32724 C22.5158821,107.32724 17.2429893,102.058149 17.2429893,95.55814 L17.2429893,63.4020491 C17.2429893,62.4287309 18.0322393,61.6412945 19.004525,61.6412945 L44.8696679,61.6412945 C51.3725607,61.6412945 56.6454536,66.9103855 56.6454536,73.4118582 L56.6454536,105.567949 Z M139.446418,120.128204 C127.972275,120.128204 118.419275,128.314322 116.291668,139.159867 L65.8118821,107.518976 C70.8622036,101.203385 73.8888821,93.1987582 73.8888821,84.4842673 C73.8888821,75.77124 70.8622036,67.7666127 65.8118821,61.4510218 L116.613811,29.6066855 C117.568525,33.2804127 119.372525,36.6101855 121.823739,39.3647491 C122.585168,32.0158309 127.891739,26.0017491 134.832454,24.1136582 C133.904096,23.6321218 133.044561,23.0071491 132.290454,22.2402036 C130.411775,20.3286945 129.392632,17.8009945 129.417525,15.1240036 C129.468775,9.62658545 133.958275,5.18884 139.444954,5.18884 C139.477168,5.18884 139.507918,5.19030364 139.538668,5.19030364 C142.218311,5.21518545 144.726632,6.28071273 146.605311,8.19075818 C148.482525,10.1022673 149.503132,12.6299673 149.476775,15.3069582 C149.441632,19.1372945 147.246668,22.44804 144.064775,24.10634 C147.079739,24.9157309 149.842846,26.4979218 152.087596,28.7841218 C154.935632,31.6835855 156.657632,35.3880491 157.061775,39.3735309 C160.776668,35.2050945 163.052168,29.7267036 163.052168,23.7053036 C163.052168,10.6745491 152.484418,0.110021818 139.446418,0.110021818 C126.409882,0.110021818 115.840668,10.6745491 115.840668,23.7053036 C115.840668,24.9347582 115.959275,26.1334764 116.142311,27.3117036 L64.381275,59.7575945 C57.6192036,52.2667036 47.8333821,47.5567218 36.9449536,47.5567218 C16.5401321,47.5567218 -0.000439285714,64.0899582 -0.000439285714,84.4842673 C-0.000439285714,104.88004 16.5401321,121.413276 36.9449536,121.413276 C47.8319179,121.413276 57.6192036,116.701831 64.3798107,109.212404 L115.951954,141.53974 C115.886061,142.259849 115.840668,142.985813 115.840668,143.722022 C115.840668,149.740495 118.114704,155.214495 121.823739,159.382931 C122.585168,152.032549 127.891739,146.019931 134.832454,144.133304 C133.904096,143.650304 133.044561,143.026795 132.290454,142.256922 C130.411775,140.346876 129.392632,137.819176 129.417525,135.142185 C129.468775,129.644767 133.958275,125.207022 139.444954,125.207022 C139.477168,125.207022 139.507918,125.208485 139.538668,125.208485 C142.218311,125.233367 144.726632,126.298895 146.605311,128.20894 C148.482525,130.120449 149.503132,132.648149 149.476775,135.32514 C149.441632,139.155476 147.246668,142.466222 144.064775,144.125985 C147.079739,144.933913 149.842846,146.516104 152.087596,148.80084 C154.935632,151.701767 156.657632,155.407695 157.061775,159.391713 C160.776668,155.223276 163.052168,149.746349 163.052168,143.722022 C163.052168,130.691267 152.484418,120.128204 139.446418,120.128204 L139.446418,120.128204 Z" id="Fill-5"></path>
                        </g>
                        <path d="M139.172358,146 C139.121018,146.001459 139.072611,146.007296 139.02127,146.007296 L138.988998,146.007296 C130.357873,146.048156 123.187761,152.984081 123.029338,161.614221 C123.027871,161.660918 123.007334,161.700318 123,161.744097 C127.215815,165.615548 132.831034,168 139.019803,168 C145.189503,168 150.788586,165.630141 155,161.780578 C154.967729,157.634784 153.358561,153.729769 150.430667,150.763067 C147.439697,147.732157 143.440981,146.04086 139.172358,146" id="Fill-7" fill="#92CCFF"></path>
                        <path d="M139.584985,143.993985 C144.172738,143.915789 147.956017,140.209023 147.999624,135.578947 C148.020676,133.309774 147.156055,131.166917 145.565153,129.547368 C143.972748,127.924812 141.846532,127.022556 139.577467,127.001504 C139.551904,127.001504 139.523334,127 139.497772,127 C134.846864,127 131.042533,130.762406 131.00043,135.42406 C130.977874,137.694737 131.843999,139.83609 133.433397,141.457143 C135.015277,143.067669 137.124952,143.968421 139.380484,144 C139.41958,143.998496 139.458676,143.993985 139.496268,143.993985 L139.584985,143.993985 Z" id="Fill-9" fill="#92CCFF"></path>
                        <path d="M41.2472499,88 L28.7541894,88 C28.3396731,88 28,88.3632148 28,88.8083462 L28,89.1916538 C28,89.6367852 28.3396731,90 28.7541894,90 L41.2472499,90 C41.6617662,90 42,89.6367852 42,89.1916538 L42,88.8083462 C42,88.3632148 41.6617662,88 41.2472499,88" id="Fill-11" fill="#666666"></path>
                        <path d="M45.2313583,80 L27.7686417,80 C27.3453744,80 27,80.3632148 27,80.8083462 L27,81.1916538 C27,81.6367852 27.3453744,82 27.7686417,82 L45.2313583,82 C45.6546256,82 46,81.6367852 46,81.1916538 L46,80.8083462 C46,80.3632148 45.6546256,80 45.2313583,80" id="Fill-13" fill="#666666"></path>
                    </g>
                </g>
            </g>
        </g>
    </g>
</svg>