<?xml version="1.0" encoding="UTF-8"?>
<svg width="88px" height="88px" viewBox="0 0 88 88" version="1.1" xmlns="http://www.w3.org/2000/svg" xmlns:xlink="http://www.w3.org/1999/xlink">
    <!-- Generator: Sketch 55.1 (78136) - https://sketchapp.com -->
    <title>convenience_ico_merchants</title>
    <desc>Created with Sketch.</desc>
    <defs>
        <polygon id="path-1" points="0 0 87.9998 0 87.9998 60.5808 0 60.5808"></polygon>
    </defs>
    <g id="页面1" stroke="none" stroke-width="1" fill="none" fill-rule="evenodd">
        <g id="便民-展开" transform="translate(-598.000000, -482.000000)">
            <g id="编组-2备份-7" transform="translate(558.000000, 442.000000)">
                <g id="convenience_ico_merchants" transform="translate(40.000000, 40.000000)">
                    <g id="编组">
                        <mask id="mask-2" fill="white">
                            <use xlink:href="#path-1"></use>
                        </mask>
                        <g id="Clip-2"></g>
                        <path d="M87.9488,41.9698 C86.8868,18.6128 67.6198,-0.0002 43.9998,-0.0002 C20.3808,-0.0002 1.1128,18.6128 0.0518,41.9698 C0.0208,42.6428 -0.0002,43.3198 -0.0002,43.9998 C-0.0002,49.8678 1.1578,55.4628 3.2428,60.5808 C14.4178,52.9228 28.5798,48.3328 43.9998,48.3328 C59.4208,48.3328 73.5828,52.9228 84.7578,60.5808 C86.8428,55.4628 87.9998,49.8678 87.9998,43.9998 C87.9998,43.3198 87.9788,42.6428 87.9488,41.9698" id="Fill-1" fill="#D8B0FF" mask="url(#mask-2)"></path>
                    </g>
                    <path d="M43.9996,88 C62.4326,88 78.2086,76.661 84.7576,60.581 C73.5826,52.923 59.4206,48.333 43.9996,48.333 C28.5796,48.333 14.4176,52.923 3.2426,60.581 C9.7916,76.661 25.5666,88 43.9996,88" id="Fill-3" fill="#A667F9"></path>
                    <path d="M68.1588,32.4454 L64.2188,24.7204 C63.2868,22.8954 61.4118,21.7474 59.3628,21.7474 L28.6378,21.7474 C26.5888,21.7474 24.7128,22.8954 23.7818,24.7204 L19.8408,32.4454 C17.6528,37.4614 20.8908,43.3874 26.3458,43.8304 C29.3908,44.0834 32.3378,42.6744 34.0548,40.1464 C34.6008,39.3374 35.6998,39.1234 36.5098,39.6694 C36.6968,39.7964 36.8588,39.9584 36.9858,40.1464 C38.5118,42.3874 41.0838,43.8584 43.9998,43.8584 C46.9168,43.8584 49.4868,42.3874 51.0138,40.1464 C51.5598,39.3374 52.6588,39.1234 53.4688,39.6694 C53.6558,39.7964 53.8178,39.9584 53.9448,40.1464 C55.6628,42.6744 58.6088,44.0834 61.6548,43.8304 C67.1078,43.3874 70.3468,37.4614 68.1588,32.4454" id="Fill-5" fill="#FFFFFF"></path>
                    <path d="M55.1012,60.8536 L33.0332,60.8536 C32.1812,60.8536 31.3742,60.2806 31.2482,59.4376 C31.0942,58.4096 31.8972,57.5156 32.8982,57.5156 L54.9672,57.5156 C55.8192,57.5156 56.6252,58.0896 56.7512,58.9316 C56.9052,59.9606 56.1022,60.8536 55.1012,60.8536 M62.4422,47.3156 C61.9502,47.3756 61.4552,47.4076 60.9582,47.4076 C58.2942,47.4086 55.7062,46.5246 53.5992,44.8956 C52.9412,44.3796 52.0162,44.3796 51.3582,44.8956 C49.2502,46.5246 46.6632,47.4086 43.9992,47.4076 C41.3352,47.4086 38.7472,46.5246 36.6402,44.8956 C35.9822,44.3796 35.0572,44.3796 34.3992,44.8956 C31.8912,46.8336 28.7192,47.7046 25.5742,47.3176 C24.6062,47.1956 23.7232,47.8796 23.6012,48.8476 C23.5912,48.9216 23.5872,48.9976 23.5872,49.0716 L23.5872,64.1736 C23.5872,66.1616 25.1562,67.7726 27.0902,67.7726 L60.9102,67.7726 C62.8442,67.7726 64.4132,66.1616 64.4132,64.1736 L64.4132,49.0776 C64.4122,48.0186 63.4912,47.1806 62.4422,47.3156" id="Fill-7" fill="#FFFFFF"></path>
                </g>
            </g>
        </g>
    </g>
</svg>