<?xml version="1.0" encoding="UTF-8"?>
<svg width="88px" height="88px" viewBox="0 0 88 88" version="1.1" xmlns="http://www.w3.org/2000/svg" xmlns:xlink="http://www.w3.org/1999/xlink">
    <!-- Generator: Sketch 55.1 (78136) - https://sketchapp.com -->
    <title> </title>
    <desc>Created with Sketch.</desc>
    <defs>
        <polygon id="path-1" points="0 0 87.9999 0 87.9999 60.581 0 60.581"></polygon>
        <polygon id="path-3" points="0.2427 0.3333 81.7577 0.3333 81.7577 40 0.2427 40"></polygon>
    </defs>
    <g id="页面1" stroke="none" stroke-width="1" fill="none" fill-rule="evenodd">
        <g id="便民-展开" transform="translate(-420.000000, -482.000000)">
            <g id="编组-2备份-6" transform="translate(380.000000, 442.000000)">
                <g id="-" transform="translate(40.000000, 40.000000)">
                    <g id="编组">
                        <mask id="mask-2" fill="white">
                            <use xlink:href="#path-1"></use>
                        </mask>
                        <g id="Clip-2"></g>
                        <path d="M87.9489,41.97 C86.8869,18.613 67.6199,0 43.9999,0 C20.3809,0 1.1129,18.613 0.0519,41.97 C0.0209,42.643 -0.0001,43.319 -0.0001,44 C-0.0001,49.867 1.1579,55.463 3.2429,60.581 C14.4179,52.923 28.5799,48.333 43.9999,48.333 C59.4209,48.333 73.5829,52.923 84.7579,60.581 C86.8419,55.463 87.9999,49.867 87.9999,44 C87.9999,43.319 87.9789,42.643 87.9489,41.97" id="Fill-1" fill="#F7C872" mask="url(#mask-2)"></path>
                    </g>
                    <g id="编组" transform="translate(3.000000, 48.000000)">
                        <mask id="mask-4" fill="white">
                            <use xlink:href="#path-3"></use>
                        </mask>
                        <g id="Clip-4"></g>
                        <path d="M40.9997,40.0003 C59.4327,40.0003 75.2087,28.6603 81.7577,12.5813 C70.5827,4.9233 56.4207,0.3333 40.9997,0.3333 C25.5797,0.3333 11.4177,4.9233 0.2427,12.5813 C6.7917,28.6603 22.5667,40.0003 40.9997,40.0003" id="Fill-3" fill="#F29500" mask="url(#mask-4)"></path>
                    </g>
                    <path d="M36.6188,43.5784 L36.6188,15.9434 C36.6188,14.9664 35.7458,14.1824 34.7408,14.3324 C33.9188,14.4544 33.3578,15.2434 33.3578,16.0754 L33.3578,43.5674 C26.4668,44.3854 21.4208,50.5054 21.4208,57.4484 L21.4208,70.6464 C21.4208,70.9544 21.6698,71.2044 21.9768,71.2044 L28.5568,71.2044 C28.8648,71.2044 29.1148,70.9544 29.1148,70.6464 L29.1148,60.2404 C29.1148,59.9334 29.3218,59.6424 29.6258,59.5974 C29.9968,59.5414 30.3188,59.8314 30.3188,60.1924 L30.3188,70.6464 C30.3188,70.9544 30.5678,71.2044 30.8758,71.2044 L33.8288,71.2044 C34.1368,71.2044 34.3868,70.9544 34.3868,70.6464 L34.3868,60.2404 C34.3868,59.9334 34.5938,59.6424 34.8968,59.5974 C35.2678,59.5414 35.5908,59.8314 35.5908,60.1924 L35.5908,70.6464 C35.5908,70.9544 35.8398,71.2044 36.1468,71.2044 L39.0998,71.2044 C39.4088,71.2044 39.6578,70.9544 39.6578,70.6464 L39.6578,60.2404 C39.6578,59.9334 39.8648,59.6424 40.1688,59.5974 C40.5398,59.5414 40.8618,59.8314 40.8618,60.1924 L40.8618,70.6464 C40.8618,70.9544 41.1108,71.2044 41.4188,71.2044 L47.9988,71.2044 C48.3068,71.2044 48.5568,70.9544 48.5568,70.6464 L48.5568,57.0374 C48.5568,50.1284 43.3178,44.3914 36.6188,43.5784" id="Fill-5" fill="#FFFFFF"></path>
                    <path d="M65.4079,56.7551 C63.6579,56.7551 62.2349,55.3321 62.2349,53.5831 C62.2349,51.8341 63.6579,50.4111 65.4079,50.4111 C67.1569,50.4111 68.5799,51.8341 68.5799,53.5831 C68.5799,55.3321 67.1569,56.7551 65.4079,56.7551 M70.5799,53.5831 C70.5799,50.7321 68.2599,48.4111 65.4079,48.4111 C62.5549,48.4111 60.2349,50.7321 60.2349,53.5831 C60.2349,56.4351 62.5549,58.7551 65.4079,58.7551 C68.2599,58.7551 70.5799,56.4351 70.5799,53.5831" id="Fill-7" fill="#FFFFFF"></path>
                    <path d="M59.5251,65.7678 C58.5811,65.7678 57.8131,64.9998 57.8131,64.0558 C57.8131,63.1118 58.5811,62.3438 59.5251,62.3438 C60.4691,62.3438 61.2371,63.1118 61.2371,64.0558 C61.2371,64.9998 60.4691,65.7678 59.5251,65.7678 M59.5251,60.3438 C57.4781,60.3438 55.8131,62.0088 55.8131,64.0558 C55.8131,66.1028 57.4781,67.7678 59.5251,67.7678 C61.5721,67.7678 63.2371,66.1028 63.2371,64.0558 C63.2371,62.0088 61.5721,60.3438 59.5251,60.3438" id="Fill-9" fill="#FFFFFF"></path>
                    <path d="M68.4948,70.1653 C68.0698,70.1653 67.7248,69.8203 67.7248,69.3953 C67.7248,68.9713 68.0698,68.6263 68.4948,68.6263 C68.9198,68.6263 69.2648,68.9713 69.2648,69.3953 C69.2648,69.8203 68.9198,70.1653 68.4948,70.1653 M68.4948,67.8763 C67.6568,67.8763 66.9748,68.5583 66.9748,69.3953 C66.9748,70.2333 67.6568,70.9153 68.4948,70.9153 C69.3328,70.9153 70.0148,70.2333 70.0148,69.3953 C70.0148,68.5583 69.3328,67.8763 68.4948,67.8763" id="Fill-11" fill="#FFFFFF"></path>
                </g>
            </g>
        </g>
    </g>
</svg>