<?xml version="1.0" encoding="UTF-8"?>
<svg width="88px" height="88px" viewBox="0 0 88 88" version="1.1" xmlns="http://www.w3.org/2000/svg" xmlns:xlink="http://www.w3.org/1999/xlink">
    <!-- Generator: Sketch 55.1 (78136) - https://sketchapp.com -->
    <title>convenience_ico_train</title>
    <desc>Created with Sketch.</desc>
    <defs>
        <polygon id="path-1" points="0 0 87.9999 0 87.9999 60.5813 0 60.5813"></polygon>
    </defs>
    <g id="页面1" stroke="none" stroke-width="1" fill="none" fill-rule="evenodd">
        <g id="便民-展开" transform="translate(-242.000000, -482.000000)">
            <g id="编组-2备份-5" transform="translate(202.000000, 442.000000)">
                <g id="convenience_ico_train" transform="translate(40.000000, 40.000000)">
                    <g id="编组">
                        <mask id="mask-2" fill="white">
                            <use xlink:href="#path-1"></use>
                        </mask>
                        <g id="Clip-2"></g>
                        <path d="M87.9489,41.9693 C86.8869,18.6123 67.6199,-0.0007 43.9999,-0.0007 C20.3809,-0.0007 1.1129,18.6123 0.0519,41.9693 C0.0209,42.6433 -0.0001,43.3193 -0.0001,43.9993 C-0.0001,49.8673 1.1579,55.4623 3.2429,60.5813 C14.4179,52.9233 28.5799,48.3333 43.9999,48.3333 C59.4199,48.3333 73.5819,52.9233 84.7569,60.5813 C86.8419,55.4623 87.9999,49.8673 87.9999,43.9993 C87.9999,43.3193 87.9789,42.6433 87.9489,41.9693" id="Fill-1" fill="#95DBF9" mask="url(#mask-2)"></path>
                    </g>
                    <path d="M44.0001,87.9996 C62.4331,87.9996 78.2081,76.6606 84.7571,60.5816 C73.5821,52.9236 59.4201,48.3336 44.0001,48.3336 C28.5801,48.3336 14.4171,52.9236 3.2431,60.5816 C9.7921,76.6606 25.5671,87.9996 44.0001,87.9996" id="Fill-3" fill="#00BCE8"></path>
                    <path d="M62.9186,38.5826 L51.9776,38.5826 C51.1046,38.5826 50.4046,37.8046 50.5386,36.9066 C50.6476,36.1726 51.3506,35.6726 52.0926,35.6726 L62.8026,35.6726 C63.5456,35.6726 64.2476,36.1726 64.3576,36.9066 C64.4916,37.8046 63.7916,38.5826 62.9186,38.5826 M62.9186,45.9546 L51.9776,45.9546 C51.1046,45.9546 50.4046,45.1756 50.5386,44.2786 C50.6476,43.5446 51.3506,43.0436 52.0926,43.0436 L62.8026,43.0436 C63.5456,43.0436 64.2476,43.5446 64.3576,44.2786 C64.4916,45.1756 63.7916,45.9546 62.9186,45.9546 M62.9186,53.3256 L51.9776,53.3256 C51.1046,53.3256 50.4046,52.5476 50.5386,51.6496 C50.6476,50.9156 51.3506,50.4156 52.0926,50.4156 L62.8026,50.4156 C63.5456,50.4156 64.2476,50.9156 64.3576,51.6496 C64.4916,52.5476 63.7916,53.3256 62.9186,53.3256 M36.0226,38.5856 L25.0816,38.5856 C24.2086,38.5856 23.5086,37.8066 23.6426,36.9096 C23.7516,36.1756 24.4546,35.6746 25.1976,35.6746 L35.9066,35.6746 C36.6496,35.6746 37.3526,36.1756 37.4616,36.9096 C37.5956,37.8066 36.8956,38.5856 36.0226,38.5856 M36.0226,45.9566 L25.0816,45.9566 C24.2086,45.9566 23.5086,45.1786 23.6426,44.2806 C23.7516,43.5466 24.4546,43.0466 25.1976,43.0466 L35.9066,43.0466 C36.6496,43.0466 37.3526,43.5466 37.4616,44.2806 C37.5956,45.1786 36.8956,45.9566 36.0226,45.9566 M36.0226,53.3286 L25.0816,53.3286 C24.2086,53.3286 23.5086,52.5496 23.6426,51.6516 C23.7516,50.9176 24.4546,50.4176 25.1976,50.4176 L35.9066,50.4176 C36.6496,50.4176 37.3526,50.9176 37.4616,51.6516 C37.5956,52.5496 36.8956,53.3286 36.0226,53.3286 M67.8966,24.8706 L50.4636,24.8706 C46.8976,24.8706 44.0066,27.7586 44.0006,31.3216 C43.9926,27.7596 41.1026,24.8726 37.5376,24.8726 L20.1036,24.8726 C18.4466,24.8726 17.1036,26.2166 17.1036,27.8726 L17.1036,60.7466 C17.1036,62.4026 18.4466,63.7466 20.1036,63.7466 L36.5406,63.7466 C42.2086,63.7466 43.9836,67.6366 43.9996,67.6706 L43.9996,67.6706 L44.0006,67.6736 L44.0006,67.6676 C44.0166,67.6336 45.7916,63.7446 51.4596,63.7446 L67.8966,63.7446 C69.5536,63.7446 70.8966,62.4006 70.8966,60.7446 L70.8966,27.8706 C70.8966,26.2136 69.5536,24.8706 67.8966,24.8706" id="Fill-5" fill="#FFFFFF"></path>
                </g>
            </g>
        </g>
    </g>
</svg>