<?xml version="1.0" encoding="UTF-8"?>
<svg width="88px" height="88px" viewBox="0 0 88 88" version="1.1" xmlns="http://www.w3.org/2000/svg" xmlns:xlink="http://www.w3.org/1999/xlink">
    <!-- Generator: Sketch 55.1 (78136) - https://sketchapp.com -->
    <title>convenience_ico_recruitment</title>
    <desc>Created with Sketch.</desc>
    <defs>
        <polygon id="path-1" points="0 0 87.9995 0 87.9995 60.5809 0 60.5809"></polygon>
        <polygon id="path-3" points="0.2428 0.3332 81.7568 0.3332 81.7568 40 0.2428 40"></polygon>
    </defs>
    <g id="页面1" stroke="none" stroke-width="1" fill="none" fill-rule="evenodd">
        <g id="便民" transform="translate(-64.000000, -304.000000)">
            <g id="编组-2" transform="translate(24.000000, 264.000000)">
                <g id="convenience_ico_recruitment" transform="translate(40.000000, 40.000000)">
                    <g id="编组">
                        <mask id="mask-2" fill="white">
                            <use xlink:href="#path-1"></use>
                        </mask>
                        <g id="Clip-2"></g>
                        <path d="M87.9485,41.9699 C86.8865,18.6129 67.6195,-0.0001 43.9995,-0.0001 C20.3805,-0.0001 1.1135,18.6129 0.0515,41.9699 C0.0205,42.6429 -0.0005,43.3199 -0.0005,43.9999 C-0.0005,49.8679 1.1575,55.4629 3.2425,60.5809 C14.4175,52.9229 28.5795,48.3329 43.9995,48.3329 C59.4205,48.3329 73.5825,52.9229 84.7575,60.5809 C86.8425,55.4629 87.9995,49.8679 87.9995,43.9999 C87.9995,43.3199 87.9795,42.6429 87.9485,41.9699" id="Fill-1" fill="#F77272" mask="url(#mask-2)"></path>
                    </g>
                    <g id="编组" transform="translate(3.000000, 48.000000)">
                        <mask id="mask-4" fill="white">
                            <use xlink:href="#path-3"></use>
                        </mask>
                        <g id="Clip-4"></g>
                        <path d="M40.9998,40.0002 C59.4328,40.0002 75.2088,28.6612 81.7568,12.5812 C70.5828,4.9232 56.4198,0.3332 40.9998,0.3332 C25.5798,0.3332 11.4178,4.9232 0.2428,12.5812 C6.7918,28.6612 22.5668,40.0002 40.9998,40.0002" id="Fill-3" fill="#EF3300" mask="url(#mask-4)"></path>
                    </g>
                    <path d="M23.6272,29.134 C20.7702,29.134 18.4452,31.458 18.4452,34.317 L18.4452,62.104 C18.4452,64.523 20.4122,66.488 22.8312,66.488 L65.1692,66.488 C67.5882,66.488 69.5542,64.523 69.5542,62.104 L69.5542,34.185 C69.5542,31.393 67.2892,29.127 64.4972,29.127 L23.6272,29.127 L23.6272,29.134 Z M65.1622,67.657 L22.8312,67.657 C19.7682,67.657 17.2762,65.165 17.2762,62.104 L17.2762,34.317 C17.2762,30.816 20.1272,27.965 23.6272,27.965 L64.4972,27.965 C67.9322,27.965 70.7242,30.757 70.7242,34.192 L70.7242,62.104 C70.7242,65.165 68.2312,67.657 65.1622,67.657 L65.1622,67.657 Z" id="Fill-5" fill="#FFFFFF"></path>
                    <path d="M50.406,27.9728 L53.125,27.9728 L53.125,26.2258 C53.125,23.6238 51.152,21.5118 48.725,21.5118 L39.26,21.5118 C36.834,21.5118 34.861,23.6308 34.861,26.2258 L34.861,27.9728 L37.587,27.9728 L37.587,27.2348 C37.587,25.7208 38.763,24.4868 40.203,24.4868 L47.782,24.4868 C49.229,24.4868 50.399,25.7208 50.399,27.2348 L50.399,27.9728 L50.406,27.9728 Z M54.294,29.1418 L49.237,29.1418 L49.237,27.2348 C49.237,26.3648 48.586,25.6558 47.789,25.6558 L40.203,25.6558 C39.406,25.6558 38.756,26.3648 38.756,27.2348 L38.756,29.1418 L33.691,29.1418 L33.691,26.2258 C33.691,22.9808 36.191,20.3418 39.26,20.3418 L48.725,20.3418 C51.795,20.3418 54.294,22.9808 54.294,26.2258 L54.294,29.1418 Z" id="Fill-7" fill="#FFFFFF"></path>
                    <path d="M65.0134,28.5763 C67.8904,28.8823 70.1384,31.3223 70.1314,34.2873 L70.1314,51.0013 C70.1314,54.6043 67.2084,57.5283 63.6054,57.5283 L24.3804,57.5283 C20.8254,57.5283 17.9384,54.6813 17.8614,51.1463 L17.8614,62.1033 C17.8614,64.8373 20.0974,67.0733 22.8304,67.0733 L65.1614,67.0733 C67.9024,67.0733 70.1384,64.8373 70.1384,62.1033 L70.1384,34.1913 C70.1384,31.2603 67.8784,28.8393 65.0134,28.5763" id="Fill-9" fill="#FFFFFF"></path>
                    <path d="M69.5471,51.009 C69.5471,54.283 66.8801,56.95 63.6051,56.95 L24.3801,56.95 C21.1061,56.95 18.4381,54.283 18.4381,51.009 L18.4381,34.287 C18.4381,31.444 20.7481,29.134 23.5911,29.134 L64.3951,29.134 C67.2371,29.134 69.5471,31.444 69.5471,34.287 L69.5471,51.009 Z M64.4011,27.965 L23.5981,27.965 C20.1121,27.965 17.2761,30.801 17.2761,34.287 L17.2761,51.009 C17.2761,54.926 20.4631,58.12 24.3871,58.12 L63.6051,58.12 C67.5301,58.12 70.7241,54.926 70.7241,51.009 L70.7241,34.287 C70.7241,30.801 67.8881,27.965 64.4011,27.965 L64.4011,27.965 Z" id="Fill-11" fill="#FFFFFF"></path>
                    <path d="M51.7581,52.6974 L36.2351,52.6974 C35.1531,52.6974 34.2761,51.8204 34.2761,50.7384 L34.2761,49.3134 C34.2761,48.2314 35.1531,47.3544 36.2351,47.3544 L51.7511,47.3544 C52.8321,47.3544 53.7091,48.2314 53.7091,49.3134 L53.7091,50.7384 C53.7091,51.8204 52.8321,52.6974 51.7581,52.6974" id="Fill-13" fill="#FFFFFF"></path>
                    <path d="M36.2346,47.9396 C35.4746,47.9396 34.8606,48.5526 34.8606,49.3136 L34.8606,50.7386 C34.8606,51.4986 35.4746,52.1126 36.2346,52.1126 L51.7506,52.1126 C52.5106,52.1126 53.1246,51.4986 53.1246,50.7386 L53.1246,49.3136 C53.1246,48.5526 52.5106,47.9396 51.7506,47.9396 L36.2346,47.9396 Z" id="Fill-15" fill="#FFFFFF"></path>
                </g>
            </g>
        </g>
    </g>
</svg>