<?xml version="1.0" encoding="UTF-8"?>
<svg width="88px" height="88px" viewBox="0 0 88 88" version="1.1" xmlns="http://www.w3.org/2000/svg" xmlns:xlink="http://www.w3.org/1999/xlink">
    <!-- Generator: Sketch 55.1 (78136) - https://sketchapp.com -->
    <title>convenience_ico_house</title>
    <desc>Created with Sketch.</desc>
    <defs>
        <polygon id="path-1" points="0 0 88 0 88 60.5816 0 60.5816"></polygon>
        <polygon id="path-3" points="0 88 88 88 88 0 0 0"></polygon>
    </defs>
    <g id="页面1" stroke="none" stroke-width="1" fill="none" fill-rule="evenodd">
        <g id="便民" transform="translate(-598.000000, -304.000000)">
            <g id="编组-2备份-3" transform="translate(558.000000, 264.000000)">
                <g id="convenience_ico_house" transform="translate(40.000000, 40.000000)">
                    <g id="编组">
                        <mask id="mask-2" fill="white">
                            <use xlink:href="#path-1"></use>
                        </mask>
                        <g id="Clip-2"></g>
                        <path d="M87.949,41.9696 C86.887,18.6126 67.62,-0.0004 44,-0.0004 C20.381,-0.0004 1.113,18.6126 0.052,41.9696 C0.02,42.6436 0,43.3196 0,43.9996 C0,49.8676 1.158,55.4626 3.243,60.5816 C14.418,52.9236 28.58,48.3326 44,48.3326 C59.421,48.3326 73.582,52.9236 84.758,60.5816 C86.842,55.4626 88,49.8676 88,43.9996 C88,43.3196 87.979,42.6436 87.949,41.9696" id="Fill-1" fill="#AEAEFF" mask="url(#mask-2)"></path>
                    </g>
                    <path d="M43.9998,87.9999 C62.4328,87.9999 78.2088,76.6609 84.7578,60.5819 C73.5818,52.9239 59.4208,48.3329 43.9998,48.3329 C28.5798,48.3329 14.4178,52.9239 3.2428,60.5819 C9.7918,76.6609 25.5668,87.9999 43.9998,87.9999" id="Fill-3" fill="#9065FC"></path>
                    <path d="M59.99,66.0975 L50.998,66.0975 L50.998,55.6385 C50.998,54.7145 51.754,53.9595 52.677,53.9595 L58.311,53.9595 C59.234,53.9595 59.99,54.7145 59.99,55.6385 L59.99,66.0975 Z M44.838,36.4185 C44.838,37.3425 44.082,38.0975 43.159,38.0975 L40.28,38.0975 C39.357,38.0975 38.602,37.3425 38.602,36.4185 L38.602,33.5395 C38.602,32.6175 39.357,31.8625 40.28,31.8625 L43.159,31.8625 C44.082,31.8625 44.838,32.6175 44.838,33.5395 L44.838,36.4185 Z M35.866,36.4185 C35.866,37.3425 35.111,38.0975 34.187,38.0975 L31.309,38.0975 C30.386,38.0975 29.631,37.3425 29.631,36.4185 L29.631,33.5395 C29.631,32.6175 30.386,31.8625 31.309,31.8625 L34.187,31.8625 C35.111,31.8625 35.866,32.6175 35.866,33.5395 L35.866,36.4185 Z M57.603,15.7955 L29.957,19.8415 C27.361,20.2215 25.437,22.4475 25.437,25.0705 L25.437,66.1755 L63.653,66.1755 L63.653,21.0245 C63.653,17.8015 60.793,15.3285 57.603,15.7955 L57.603,15.7955 Z" id="Fill-5" fill="#FFFFFF"></path>
                    <mask id="mask-4" fill="white">
                        <use xlink:href="#path-3"></use>
                    </mask>
                    <g id="Clip-8"></g>
                    <polygon id="Fill-7" fill="#FFFFFD" mask="url(#mask-4)" points="55.306 66.07 55.681 66.07 55.681 53.945 55.306 53.945"></polygon>
                </g>
            </g>
        </g>
    </g>
</svg>