<?xml version="1.0" encoding="UTF-8"?>
<svg width="88px" height="88px" viewBox="0 0 88 88" version="1.1" xmlns="http://www.w3.org/2000/svg" xmlns:xlink="http://www.w3.org/1999/xlink">
    <!-- Generator: Sketch 55.1 (78136) - https://sketchapp.com -->
    <title>convenience_ico_sell</title>
    <desc>Created with Sketch.</desc>
    <defs>
        <polygon id="path-1" points="0.0005 0 88 0 88 60.581 0.0005 60.581"></polygon>
        <polygon id="path-3" points="0.2432 0.3333 81.7572 0.3333 81.7572 40 0.2432 40"></polygon>
    </defs>
    <g id="页面1" stroke="none" stroke-width="1" fill="none" fill-rule="evenodd">
        <g id="便民" transform="translate(-242.000000, -482.000000)">
            <g id="编组-2备份-5" transform="translate(202.000000, 442.000000)">
                <g id="convenience_ico_sell" transform="translate(40.000000, 40.000000)">
                    <g id="编组">
                        <mask id="mask-2" fill="white">
                            <use xlink:href="#path-1"></use>
                        </mask>
                        <g id="Clip-2"></g>
                        <path d="M87.9485,41.97 C86.8865,18.613 67.6195,0 44.0005,0 C20.3805,0 1.1135,18.613 0.0515,41.97 C0.0205,42.643 0.0005,43.319 0.0005,44 C0.0005,49.867 1.1575,55.463 3.2425,60.581 C14.4175,52.923 28.5795,48.333 44.0005,48.333 C59.4205,48.333 73.5825,52.923 84.7575,60.581 C86.8425,55.463 88.0005,49.867 88.0005,44 C88.0005,43.319 87.9795,42.643 87.9485,41.97" id="Fill-1" fill="#F7A663" mask="url(#mask-2)"></path>
                    </g>
                    <g id="编组" transform="translate(3.000000, 48.000000)">
                        <mask id="mask-4" fill="white">
                            <use xlink:href="#path-3"></use>
                        </mask>
                        <g id="Clip-4"></g>
                        <path d="M41.0002,40.0003 C59.4332,40.0003 75.2082,28.6603 81.7572,12.5813 C70.5822,4.9233 56.4202,0.3333 41.0002,0.3333 C25.5802,0.3333 11.4172,4.9233 0.2432,12.5813 C6.7912,28.6603 22.5672,40.0003 41.0002,40.0003" id="Fill-3" fill="#FF6700" mask="url(#mask-4)"></path>
                    </g>
                    <path d="M37.0715,60.7025 L27.3005,50.9315 C26.6125,50.2425 26.6125,49.1175 27.3005,48.4305 C27.9885,47.7415 29.1135,47.7415 29.8005,48.4305 L39.5725,58.2015 C40.2605,58.8895 40.2605,60.0155 39.5725,60.7025 C38.8845,61.3895 37.7595,61.3895 37.0715,60.7025 M62.2065,25.7955 C63.4365,27.0255 63.4365,29.0195 62.2065,30.2495 C60.9765,31.4795 58.9825,31.4795 57.7525,30.2495 C56.5235,29.0195 56.5235,27.0255 57.7525,25.7955 C58.9825,24.5655 60.9765,24.5655 62.2065,25.7955 M69.2205,41.4945 L68.6105,25.9375 C68.4695,22.3615 65.5995,19.4955 62.0225,19.3605 L46.5015,18.7765 C44.5965,18.7045 42.7475,19.4305 41.3995,20.7775 L20.7805,41.3975 C18.1045,44.0725 18.1045,48.4105 20.7805,51.0865 L36.9165,67.2225 C39.5915,69.8975 43.9295,69.8975 46.6045,67.2225 L67.2195,46.6065 C68.5705,45.2565 69.2955,43.4025 69.2205,41.4945" id="Fill-5" fill="#FFFFFF"></path>
                </g>
            </g>
        </g>
    </g>
</svg>