<?xml version="1.0" encoding="UTF-8"?>
<svg width="88px" height="88px" viewBox="0 0 88 88" version="1.1" xmlns="http://www.w3.org/2000/svg" xmlns:xlink="http://www.w3.org/1999/xlink">
    <!-- Generator: Sketch 55.1 (78136) - https://sketchapp.com -->
    <title>convenience_ico_maintenance</title>
    <desc>Created with Sketch.</desc>
    <defs>
        <polygon id="path-1" points="0 0 87.9999 0 87.9999 60.5814 0 60.5814"></polygon>
    </defs>
    <g id="页面1" stroke="none" stroke-width="1" fill="none" fill-rule="evenodd">
        <g id="便民-展开" transform="translate(-420.000000, -304.000000)">
            <g id="编组-2备份-2" transform="translate(380.000000, 264.000000)">
                <g id="convenience_ico_maintenance" transform="translate(40.000000, 40.000000)">
                    <g id="编组">
                        <mask id="mask-2" fill="white">
                            <use xlink:href="#path-1"></use>
                        </mask>
                        <g id="Clip-2"></g>
                        <path d="M87.9489,41.9694 C86.8869,18.6124 67.6199,-0.0006 43.9999,-0.0006 C20.3809,-0.0006 1.1129,18.6124 0.0519,41.9694 C0.0209,42.6434 -0.0001,43.3194 -0.0001,43.9994 C-0.0001,49.8674 1.1579,55.4624 3.2429,60.5814 C14.4179,52.9234 28.5799,48.3334 43.9999,48.3334 C59.4209,48.3334 73.5829,52.9234 84.7579,60.5814 C86.8419,55.4624 87.9999,49.8674 87.9999,43.9994 C87.9999,43.3194 87.9789,42.6434 87.9489,41.9694" id="Fill-1" fill="#95C9FC" mask="url(#mask-2)"></path>
                    </g>
                    <path d="M43.9997,87.9997 C62.4327,87.9997 78.2087,76.6607 84.7577,60.5817 C73.5827,52.9237 59.4207,48.3337 43.9997,48.3337 C28.5797,48.3337 14.4177,52.9237 3.2427,60.5817 C9.7917,76.6607 25.5667,87.9997 43.9997,87.9997" id="Fill-3" fill="#0091EA"></path>
                    <path d="M23.5095,61.5417136 C23.0325,61.5437 22.5825,61.3247 22.2905,60.9477 C18.5095,56.1087 16.4575,50.1427 16.4634743,44.0017 C16.4535,36.6947 19.3575,29.6867 24.5295,24.5257 C29.6895,19.3557 36.6975,16.4537 44.0015,16.4636742 C44.5895,16.4636742 45.1405,16.8097 45.4045,17.3457 C45.6585,17.8837 45.5855,18.5207 45.2145,18.9867 L37.2185,28.9807 C36.6845,29.6517 35.7065,29.7617 35.0365,29.2267 C34.9115,29.1267 34.8025,29.0077 34.7135,28.8747 L31.0025,23.3017 L30.6325,23.5467 C29.2265,24.4717 27.9175,25.5377 26.7285,26.7287 C22.1285,31.2967 19.5505,37.5167 19.5685,43.9987 C19.5575,49.4467 21.3765,54.7417 24.7345,59.0337 C25.2635,59.7057 25.1485,60.6807 24.4755,61.2097 C24.2005,61.4257 23.8625,61.5427 23.5125,61.5417136 L23.5095,61.5417136 Z M43.9885,71.5367165 C43.1315,71.5317 42.4405,70.8337 42.445473,69.9767 C42.4465,69.6257 42.5675,69.2867 42.7855,69.0137 L50.7805,59.0187 C51.3195,58.3487 52.2985,58.2407 52.9685,58.7787 C53.0905,58.8777 53.1975,58.9947 53.2855,59.1257 L56.9975,64.6987 L57.3675,64.4537 C58.7765,63.5287 60.0835,62.4637 61.2755,61.2747 C65.8735,56.7057 68.4505,50.4837 68.4315,44.0017 C68.4425,38.5527 66.6235,33.2577 63.2655,28.9667 C62.7385,28.2907 62.8585,27.3147 63.5335,26.7877 C64.2085,26.2597 65.1845,26.3797 65.7125,27.0557 C67.5565,29.4147 69.0025,32.0597 69.9925,34.8857 C71.0195,37.8127 71.5395,40.8957 71.5365129,43.9987 C71.5435,51.3057 68.6385,58.3137 63.4645,63.4737 C58.3045,68.6437 51.2965,71.5447 43.9915,71.5367165 L43.9885,71.5367165 Z" id="Fill-5" fill="#FFFFFF"></path>
                    <path d="M32.9284,50.7097 L32.9014,50.7367 C31.6094,52.0427 31.6194,54.1477 32.9254,55.4397 L33.0324,55.5447 C34.3504,56.8477 36.5034,56.8477 37.8224,55.5447 L45.0284,48.4357 C46.2664,49.0147 47.6464,49.3387 49.1064,49.3387 C54.3714,49.3387 58.6364168,45.1257 58.6364168,39.9347 C58.6394,38.3577 58.2404,36.8077 57.4764,35.4297 L52.0404,40.7927 C51.6744,41.1517 51.0874,41.1517 50.7214,40.7927 L48.2364,38.3407 L48.2234,38.3277 C47.8704,37.9687 47.8764,37.3917 48.2364,37.0397 L53.6754,31.6717 C52.3184,30.9427 50.7634,30.5257 49.1104,30.5257 C43.8444,30.5257 39.5794,34.7387 39.5794,39.9317 C39.5794,41.1787 39.8244,42.3707 40.2734,43.4597 L32.9284,50.7097 Z" id="Fill-7" fill="#FFFFFF"></path>
                </g>
            </g>
        </g>
    </g>
</svg>