<?xml version="1.0" encoding="UTF-8"?>
<svg width="88px" height="88px" viewBox="0 0 88 88" version="1.1" xmlns="http://www.w3.org/2000/svg" xmlns:xlink="http://www.w3.org/1999/xlink">
    <!-- Generator: Sketch 55.1 (78136) - https://sketchapp.com -->
    <title>convenience_ico_part-time</title>
    <desc>Created with Sketch.</desc>
    <defs>
        <polygon id="path-1" points="0 0 87.9997 0 87.9997 60.5809 0 60.5809"></polygon>
        <polygon id="path-3" points="0.243 0.3332 81.757 0.3332 81.757 40 0.243 40"></polygon>
    </defs>
    <g id="页面1" stroke="none" stroke-width="1" fill="none" fill-rule="evenodd">
        <g id="便民" transform="translate(-242.000000, -303.000000)">
            <g id="编组-2备份" transform="translate(202.000000, 264.000000)">
                <g id="convenience_ico_part-time" transform="translate(40.000000, 39.000000)">
                    <g id="编组">
                        <mask id="mask-2" fill="white">
                            <use xlink:href="#path-1"></use>
                        </mask>
                        <g id="Clip-2"></g>
                        <path d="M87.9487,41.9699 C86.8867,18.6129 67.6197,-0.0001 43.9997,-0.0001 C20.3807,-0.0001 1.1127,18.6129 0.0517,41.9699 C0.0207,42.6429 -0.0003,43.3199 -0.0003,43.9999 C-0.0003,49.8679 1.1577,55.4629 3.2427,60.5809 C14.4177,52.9229 28.5797,48.3329 43.9997,48.3329 C59.4207,48.3329 73.5827,52.9229 84.7577,60.5809 C86.8417,55.4629 87.9997,49.8679 87.9997,43.9999 C87.9997,43.3199 87.9797,42.6429 87.9487,41.9699" id="Fill-1" fill="#95C9FC" mask="url(#mask-2)"></path>
                    </g>
                    <g id="编组" transform="translate(3.000000, 48.000000)">
                        <mask id="mask-4" fill="white">
                            <use xlink:href="#path-3"></use>
                        </mask>
                        <g id="Clip-4"></g>
                        <path d="M41,40.0002 C59.433,40.0002 75.208,28.6612 81.757,12.5812 C70.583,4.9232 56.42,0.3332 41,0.3332 C25.58,0.3332 11.418,4.9232 0.243,12.5812 C6.792,28.6612 22.567,40.0002 41,40.0002" id="Fill-3" fill="#0091EA" mask="url(#mask-4)"></path>
                    </g>
                    <path d="M46.5205,22.0412 L46.5205,21.0242 C46.5205,19.4952 45.2695,18.2432 43.7395,18.2432 L43.3925,18.2432 C41.8625,18.2432 40.6115,19.4952 40.6115,21.0242 L40.6115,22.1512 C29.0185,23.8032 20.0755,33.7902 20.0755,45.8322 C20.0755,59.0242 30.8075,69.7572 44.0005,69.7572 C45.7655,69.7572 47.5275,69.5632 49.2355,69.1822 C50.0875,68.9912 50.6255,68.1462 50.4355,67.2942 C50.2445,66.4402 49.3955,65.9062 48.5455,66.0952 C47.0635,66.4242 45.5335,66.5932 44.0005,66.5932 C32.5525,66.5932 23.2375,57.2792 23.2375,45.8322 C23.2375,34.3852 32.5525,25.0702 44.0005,25.0702 C55.4475,25.0702 64.7615,34.3852 64.7615,45.8322 C64.7615,47.3592 64.5945,48.8832 64.2665,50.3592 C64.0775,51.2122 64.6135,52.0562 65.4675,52.2452 C66.3195,52.4382 67.1645,51.8982 67.3555,51.0462 C67.7325,49.3452 67.9245,47.5912 67.9245,45.8322 C67.9245,33.4912 58.5325,23.3052 46.5205,22.0412" id="Fill-5" fill="#FFFFFF"></path>
                    <path d="M46.5205,22.0412 L46.5205,21.0242 C46.5205,19.4952 45.2695,18.2432 43.7395,18.2432 L43.3925,18.2432 C41.8625,18.2432 40.6115,19.4952 40.6115,21.0242 L40.6115,22.1512 C29.0185,23.8032 20.0755,33.7902 20.0755,45.8322 C20.0755,59.0242 30.8075,69.7572 44.0005,69.7572 C45.7655,69.7572 47.5275,69.5632 49.2355,69.1822 C50.0875,68.9912 50.6255,68.1462 50.4355,67.2942 C50.2445,66.4402 49.3955,65.9062 48.5455,66.0952 C47.0635,66.4242 45.5335,66.5932 44.0005,66.5932 C32.5525,66.5932 23.2375,57.2792 23.2375,45.8322 C23.2375,34.3852 32.5525,25.0702 44.0005,25.0702 C55.4475,25.0702 64.7615,34.3852 64.7615,45.8322 C64.7615,47.3592 64.5945,48.8832 64.2665,50.3592 C64.0775,51.2122 64.6135,52.0562 65.4675,52.2452 C66.3195,52.4382 67.1645,51.8982 67.3555,51.0462 C67.7325,49.3452 67.9245,47.5912 67.9245,45.8322 C67.9245,33.4912 58.5325,23.3052 46.5205,22.0412 Z" id="Stroke-7" stroke="#FFFFFF" stroke-width="0.5"></path>
                    <path d="M53.3652,46.8029 C53.8262,46.8029 54.2022,46.4259 54.2022,45.9649 C54.2022,45.5029 53.8262,45.1279 53.3652,45.1279 L44.6532,45.1279 L44.6532,35.7599 C44.6532,35.2979 44.2772,34.9229 43.8162,34.9229 C43.3542,34.9229 42.9792,35.2979 42.9792,35.7599 L42.9792,45.9649 C42.9792,46.4259 43.3542,46.8029 43.8162,46.8029 L53.3652,46.8029 Z" id="Fill-9" fill="#FFFFFF"></path>
                    <path d="M53.3652,46.8029 C53.8262,46.8029 54.2022,46.4259 54.2022,45.9649 C54.2022,45.5029 53.8262,45.1279 53.3652,45.1279 L44.6532,45.1279 L44.6532,35.7599 C44.6532,35.2979 44.2772,34.9229 43.8162,34.9229 C43.3542,34.9229 42.9792,35.2979 42.9792,35.7599 L42.9792,45.9649 C42.9792,46.4259 43.3542,46.8029 43.8162,46.8029 L53.3652,46.8029 Z" id="Stroke-11" stroke="#FFFFFF" stroke-width="2"></path>
                    <path d="M58.9414,52.6564 C54.3374,52.6564 50.6064,56.3864 50.6064,60.9904 C50.6064,65.5934 54.3374,69.3234 58.9414,69.3234 C63.5434,69.3234 67.2744,65.5934 67.2744,60.9904 C67.2744,56.3864 63.5434,52.6564 58.9414,52.6564" id="Fill-13" fill="#0091EA"></path>
                    <path d="M58.9414,52.6564 C54.3374,52.6564 50.6064,56.3864 50.6064,60.9904 C50.6064,65.5934 54.3374,69.3234 58.9414,69.3234 C63.5434,69.3234 67.2744,65.5934 67.2744,60.9904 C67.2744,56.3864 63.5434,52.6564 58.9414,52.6564 Z" id="Stroke-15" stroke="#FFFFFF" stroke-width="2"></path>
                    <path d="M61.727,62.0549 C62.221,62.0549 62.62,62.4549 62.62,62.9479 C62.62,63.4409 62.221,63.8389 61.727,63.8389 L59.874,63.8389 L59.874,65.5439 C59.874,66.0379 59.473,66.4379 58.98,66.4379 C58.487,66.4379 58.087,66.0379 58.087,65.5439 L58.087,63.8389 L56.074,63.8389 C55.581,63.8389 55.181,63.4409 55.181,62.9479 C55.181,62.4549 55.581,62.0549 56.074,62.0549 L58.087,62.0549 L58.087,61.0809 L56.153,61.0809 C55.661,61.0809 55.261,60.6819 55.261,60.1899 C55.261,59.6969 55.661,59.2959 56.153,59.2959 L57.406,59.2959 L56.039,57.9279 C55.69,57.5789 55.69,57.0149 56.039,56.6659 C56.387,56.3179 56.953,56.3179 57.3,56.6659 L58.99,58.3569 L60.681,56.6659 C61.03,56.3179 61.595,56.3179 61.943,56.6659 C62.293,57.0149 62.293,57.5789 61.943,57.9279 L60.575,59.2959 L61.807,59.2959 C62.3,59.2959 62.699,59.6969 62.699,60.1899 C62.699,60.6819 62.3,61.0809 61.807,61.0809 L59.874,61.0809 L59.874,62.0549 L61.727,62.0549 Z" id="Fill-17" fill="#FFFFFF"></path>
                </g>
            </g>
        </g>
    </g>
</svg>