<?xml version="1.0" encoding="UTF-8"?>
<svg width="88px" height="88px" viewBox="0 0 88 88" version="1.1" xmlns="http://www.w3.org/2000/svg" xmlns:xlink="http://www.w3.org/1999/xlink">
    <!-- Generator: Sketch 55.1 (78136) - https://sketchapp.com -->
    <title>convenience_ico_decorate</title>
    <desc>Created with Sketch.</desc>
    <defs>
        <polygon id="path-1" points="0 0 87.9998 0 87.9998 60.581 0 60.581"></polygon>
        <polygon id="path-3" points="0.2426 0.3333 81.7576 0.3333 81.7576 40 0.2426 40"></polygon>
    </defs>
    <g id="页面1" stroke="none" stroke-width="1" fill="none" fill-rule="evenodd">
        <g id="便民-展开" transform="translate(-598.000000, -304.000000)">
            <g id="编组-2备份-3" transform="translate(558.000000, 264.000000)">
                <g id="convenience_ico_decorate" transform="translate(40.000000, 40.000000)">
                    <g id="编组">
                        <mask id="mask-2" fill="white">
                            <use xlink:href="#path-1"></use>
                        </mask>
                        <g id="Clip-2"></g>
                        <path d="M87.9488,41.97 C86.8868,18.613 67.6198,0 43.9998,0 C20.3808,0 1.1128,18.613 0.0518,41.97 C0.0208,42.643 -0.0002,43.319 -0.0002,44 C-0.0002,49.867 1.1578,55.463 3.2428,60.581 C14.4178,52.923 28.5798,48.333 43.9998,48.333 C59.4208,48.333 73.5828,52.923 84.7578,60.581 C86.8428,55.463 87.9998,49.867 87.9998,44 C87.9998,43.319 87.9788,42.643 87.9488,41.97" id="Fill-1" fill="#F77272" mask="url(#mask-2)"></path>
                    </g>
                    <g id="编组" transform="translate(3.000000, 48.000000)">
                        <mask id="mask-4" fill="white">
                            <use xlink:href="#path-3"></use>
                        </mask>
                        <g id="Clip-4"></g>
                        <path d="M40.9996,40.0003 C59.4326,40.0003 75.2086,28.6603 81.7576,12.5813 C70.5826,4.9233 56.4206,0.3333 40.9996,0.3333 C25.5796,0.3333 11.4176,4.9233 0.2426,12.5813 C6.7916,28.6603 22.5666,40.0003 40.9996,40.0003" id="Fill-3" fill="#EF3300" mask="url(#mask-4)"></path>
                    </g>
                    <path d="M57.4771,28.8304 L29.1801,28.8304 C28.2071,28.8304 27.4121,28.0344 27.4121,27.0614 C27.4121,26.0894 28.2071,25.2934 29.1801,25.2934 L57.4771,25.2934 C58.4501,25.2934 59.2461,26.0894 59.2461,27.0614 C59.2461,28.0344 58.4501,28.8304 57.4771,28.8304 M65.4621,29.7274 L64.5701,29.7274 C64.0771,29.7274 63.6761,29.3284 63.6761,28.8354 L63.6761,25.3074 C63.6761,23.3614 62.0841,21.7694 60.1391,21.7694 L26.5371,21.7694 C24.5911,21.7694 22.9991,23.3614 22.9991,25.3074 L22.9991,37.6864 C22.9991,39.6324 24.5911,41.2244 26.5371,41.2244 L60.1391,41.2244 C62.0841,41.2244 63.6761,39.6324 63.6761,37.6864 L63.6761,34.1584 C63.6761,33.6654 64.0771,33.2654 64.5701,33.2654 C65.0631,33.2654 65.4621,33.6654 65.4621,34.1584 L65.4621,43.8674 C65.4621,44.3604 65.0631,44.7614 64.5701,44.7614 L45.0141,44.7614 C43.0601,44.7614 41.4771,46.3444 41.4771,48.2984 L41.4771,51.6894 C39.5751,51.7404 38.0321,53.3044 38.0321,55.2174 L38.0321,69.5264 C38.0321,71.4724 39.6231,73.0634 41.5691,73.0634 L45.1061,73.0634 C47.0511,73.0634 48.6431,71.4724 48.6431,69.5264 L48.6431,55.2184 C48.6431,53.2724 47.0511,51.6814 45.1061,51.6814 L45.0141,51.6814 L45.0141,48.2984 L65.4621,48.2984 C67.4161,48.2984 68.9991,46.7144 68.9991,44.7614 L68.9991,33.2654 C68.9991,31.3114 67.4161,29.7274 65.4621,29.7274" id="Fill-5" fill="#FFFFFF"></path>
                </g>
            </g>
        </g>
    </g>
</svg>