<?xml version="1.0" encoding="UTF-8"?>
<svg width="88px" height="88px" viewBox="0 0 88 88" version="1.1" xmlns="http://www.w3.org/2000/svg" xmlns:xlink="http://www.w3.org/1999/xlink">
    <!-- Generator: Sketch 55.1 (78136) - https://sketchapp.com -->
    <title> convenience_ico_position</title>
    <desc>Created with Sketch.</desc>
    <defs>
        <polygon id="path-1" points="0.0005 0 88 0 88 60.5808 0.0005 60.5808"></polygon>
    </defs>
    <g id="页面1" stroke="none" stroke-width="1" fill="none" fill-rule="evenodd">
        <g id="便民" transform="translate(-64.000000, -482.000000)">
            <g id="编组-2备份-4" transform="translate(24.000000, 442.000000)">
                <g id="-convenience_ico_position" transform="translate(40.000000, 40.000000)">
                    <g id="编组">
                        <mask id="mask-2" fill="white">
                            <use xlink:href="#path-1"></use>
                        </mask>
                        <g id="Clip-2"></g>
                        <path d="M87.9485,41.9698 C86.8865,18.6128 67.6195,-0.0002 44.0005,-0.0002 C20.3805,-0.0002 1.1135,18.6128 0.0515,41.9698 C0.0205,42.6428 0.0005,43.3198 0.0005,43.9998 C0.0005,49.8678 1.1575,55.4628 3.2425,60.5808 C14.4175,52.9228 28.5795,48.3328 44.0005,48.3328 C59.4205,48.3328 73.5825,52.9228 84.7575,60.5808 C86.8425,55.4628 88.0005,49.8678 88.0005,43.9998 C88.0005,43.3198 87.9795,42.6428 87.9485,41.9698" id="Fill-1" fill="#D8B0FF" mask="url(#mask-2)"></path>
                    </g>
                    <path d="M44.0002,88 C62.4332,88 78.2092,76.661 84.7572,60.581 C73.5822,52.923 59.4202,48.333 44.0002,48.333 C28.5802,48.333 14.4172,52.923 3.2432,60.581 C9.7912,76.661 25.5672,88 44.0002,88" id="Fill-3" fill="#A667F9"></path>
                    <path d="M37.4861,18.8477 C38.9311,18.6027 41.3001,18.3437 43.3581,18.3437 C45.4111,18.3437 47.7641,18.6017 49.2011,18.8477 C48.6361,20.9227 47.2701,24.9917 44.7501,27.6357 L41.9301,27.6357 C39.4101,24.9917 38.0491,20.9247 37.4861,18.8477 M50.7801,43.5807 C50.7491,43.5837 50.7211,43.5997 50.6881,43.5997 L42.4451,43.5997 C41.9141,43.5997 41.4791,43.1647 41.4791,42.6337 C41.4791,42.1037 41.9141,41.6687 42.4451,41.6687 L50.2761,41.6687 C50.1271,41.1107 49.9791,40.5577 49.8321,40.0197 L43.8261,40.0197 C43.2951,40.0197 42.8601,39.5847 42.8601,39.0537 C42.8601,38.5227 43.2951,38.0877 43.8261,38.0877 L49.3011,38.0877 C48.1841,34.0697 47.2271,30.8797 46.7991,29.4777 C50.7121,25.1977 52.0601,18.4327 52.1181,18.1337 C52.2551,17.4247 51.7991,16.7367 51.0921,16.5867 C50.9201,16.5497 46.8481,15.6957 43.3581,15.6957 C39.8681,15.6957 35.7721,16.5487 35.5991,16.5847 C34.8921,16.7337 34.4351,17.4207 34.5711,18.1307 C34.6291,18.4297 35.9681,25.1967 39.8811,29.4767 C38.6661,33.4517 33.1991,51.7197 31.8941,62.7107 C31.8511,63.0717 31.9581,63.4337 32.1901,63.7127 C32.3351,63.8877 35.8181,68.0377 42.5521,72.1207 C42.7571,72.2447 42.9861,72.3047 43.2161,72.3047 C43.3441,72.3047 43.4711,72.2827 43.5961,72.2447 C43.7451,72.2187 43.8911,72.1747 44.0261,72.0967 C44.1271,72.0367 44.2151,71.9617 44.2971,71.8787 C51.4451,67.8477 54.4081,63.8317 54.5331,63.6607 C54.7281,63.3907 54.8141,63.0577 54.7761,62.7277 C54.1271,57.2627 52.4511,49.9957 50.7801,43.5807" id="Fill-5" fill="#FFFFFF"></path>
                </g>
            </g>
        </g>
    </g>
</svg>