<?xml version="1.0" encoding="UTF-8"?>
<svg width="88px" height="88px" viewBox="0 0 88 88" version="1.1" xmlns="http://www.w3.org/2000/svg" xmlns:xlink="http://www.w3.org/1999/xlink">
    <!-- Generator: Sketch 55.1 (78136) - https://sketchapp.com -->
    <title>convenience_ico_house</title>
    <desc>Created with Sketch.</desc>
    <defs>
        <polygon id="path-1" points="0 0 88 0 88 60.5813 0 60.5813"></polygon>
    </defs>
    <g id="页面1" stroke="none" stroke-width="1" fill="none" fill-rule="evenodd">
        <g id="便民" transform="translate(-420.000000, -304.000000)">
            <g id="编组-2备份-2" transform="translate(380.000000, 264.000000)">
                <g id="convenience_ico_house" transform="translate(40.000000, 40.000000)">
                    <g id="编组">
                        <mask id="mask-2" fill="white">
                            <use xlink:href="#path-1"></use>
                        </mask>
                        <g id="Clip-2"></g>
                        <path d="M87.949,41.9693 C86.887,18.6123 67.62,-0.0007 44,-0.0007 C20.381,-0.0007 1.113,18.6123 0.052,41.9693 C0.02,42.6433 0,43.3193 0,43.9993 C0,49.8673 1.158,55.4623 3.243,60.5813 C14.418,52.9233 28.58,48.3333 44,48.3333 C59.421,48.3333 73.582,52.9233 84.758,60.5813 C86.842,55.4623 88,49.8673 88,43.9993 C88,43.3193 87.979,42.6433 87.949,41.9693" id="Fill-1" fill="#F7C872" mask="url(#mask-2)"></path>
                    </g>
                    <path d="M43.9998,87.9995 C62.4328,87.9995 78.2088,76.6605 84.7578,60.5815 C73.5818,52.9235 59.4208,48.3335 43.9998,48.3335 C28.5798,48.3335 14.4178,52.9235 3.2428,60.5815 C9.7918,76.6605 25.5668,87.9995 43.9998,87.9995" id="Fill-3" fill="#F29500"></path>
                    <path d="M67.4939,31.9341 L45.5619,23.1001 C44.5839,22.7051 43.5059,22.7051 42.5269,23.0971 L34.6929,26.2411 L34.6929,21.9231 C34.6929,21.5801 34.4149,21.3021 34.0719,21.3021 L28.0889,21.3021 C27.7469,21.3021 27.4699,21.5781 27.4669,21.9181 L27.4119,29.1631 L20.5079,31.9331 C19.8699,32.1901 19.5599,32.9141 19.8159,33.5521 C20.0119,34.0381 20.4779,34.3341 20.9719,34.3341 C21.1259,34.3341 21.2829,34.3051 21.4349,34.2441 L43.4539,25.4091 C43.8329,25.2551 44.2519,25.2551 44.6319,25.4101 L66.5629,34.2441 C67.2009,34.4991 67.9259,34.1931 68.1829,33.5531 C68.4399,32.9161 68.1319,32.1911 67.4939,31.9341" id="Fill-5" fill="#FFFFFF"></path>
                    <path d="M56.6971,60.6402 C56.6971,60.9782 56.4241,61.2512 56.0861,61.2512 L52.0181,61.2512 C51.6801,61.2512 51.4071,60.9782 51.4071,60.6402 L51.4071,49.1052 C51.4071,48.7672 51.6801,48.4932 52.0181,48.4932 L56.0861,48.4932 C56.4241,48.4932 56.6971,48.7672 56.6971,49.1052 L56.6971,60.6402 Z M63.2331,36.5642 L46.2051,29.7042 C44.7781,29.1302 43.1851,29.1292 41.7591,29.7022 L24.6501,36.5672 C22.3901,37.4732 20.9101,39.6632 20.9101,42.0982 L20.9101,63.3702 C20.9101,65.2082 22.3991,66.6982 24.2371,66.6982 L63.6391,66.6982 C65.4771,66.6982 66.9671,65.2082 66.9671,63.3702 L66.9671,42.0922 C66.9671,39.6612 65.4891,37.4732 63.2331,36.5642 L63.2331,36.5642 Z" id="Fill-7" fill="#FFFFFF"></path>
                </g>
            </g>
        </g>
    </g>
</svg>