<?xml version="1.0" encoding="UTF-8"?>
<svg width="88px" height="88px" viewBox="0 0 88 88" version="1.1" xmlns="http://www.w3.org/2000/svg" xmlns:xlink="http://www.w3.org/1999/xlink">
    <!-- Generator: Sketch 55.1 (78136) - https://sketchapp.com -->
    <title>convenience_ico_pet</title>
    <desc>Created with Sketch.</desc>
    <defs>
        <polygon id="path-1" points="0 0.0001 87.9995 0.0001 87.9995 60.5811 0 60.5811"></polygon>
        <polygon id="path-3" points="0.2428 0.3334 81.7568 0.3334 81.7568 40 0.2428 40"></polygon>
    </defs>
    <g id="页面1" stroke="none" stroke-width="1" fill="none" fill-rule="evenodd">
        <g id="便民-展开" transform="translate(-64.000000, -304.000000)">
            <g id="编组-2" transform="translate(24.000000, 264.000000)">
                <g id="convenience_ico_pet" transform="translate(40.000000, 40.000000)">
                    <g id="编组">
                        <mask id="mask-2" fill="white">
                            <use xlink:href="#path-1"></use>
                        </mask>
                        <g id="Clip-2"></g>
                        <path d="M87.9485,41.9701 C86.8865,18.6131 67.6195,0.0001 43.9995,0.0001 C20.3805,0.0001 1.1135,18.6131 0.0515,41.9701 C0.0205,42.6431 -0.0005,43.3191 -0.0005,44.0001 C-0.0005,49.8671 1.1575,55.4621 3.2425,60.5811 C14.4175,52.9231 28.5795,48.3331 43.9995,48.3331 C59.4205,48.3331 73.5825,52.9231 84.7575,60.5811 C86.8425,55.4621 87.9995,49.8671 87.9995,44.0001 C87.9995,43.3191 87.9795,42.6431 87.9485,41.9701" id="Fill-1" fill="#AEAEFF" mask="url(#mask-2)"></path>
                    </g>
                    <g id="编组" transform="translate(3.000000, 48.000000)">
                        <mask id="mask-4" fill="white">
                            <use xlink:href="#path-3"></use>
                        </mask>
                        <g id="Clip-4"></g>
                        <path d="M40.9998,40.0004 C59.4328,40.0004 75.2088,28.6604 81.7568,12.5814 C70.5828,4.9234 56.4198,0.3334 40.9998,0.3334 C25.5798,0.3334 11.4178,4.9234 0.2428,12.5814 C6.7918,28.6604 22.5668,40.0004 40.9998,40.0004" id="Fill-3" fill="#9065FC" mask="url(#mask-4)"></path>
                    </g>
                    <path d="M56.2986,36.4897 C56.2986,34.8037 56.8926,33.3477 58.0816,32.1217 C59.2696,30.8957 60.7066,30.2827 62.3926,30.2827 C64.0776,30.2827 65.5156,30.8957 66.7036,32.1217 C67.8926,33.3477 68.4866,34.8037 68.4866,36.4897 C68.4866,38.1757 67.8926,39.6117 66.7036,40.8007 C65.5156,41.9897 64.0776,42.5837 62.3926,42.5837 C60.7066,42.5837 59.2696,41.9897 58.0816,40.8007 C56.8926,39.6117 56.2986,38.1757 56.2986,36.4897" id="Fill-5" fill="#FFFFFF"></path>
                    <path d="M45.263,26.602 C45.263,24.916 45.857,23.479 47.046,22.29 C48.234,21.102 49.672,20.507 51.357,20.507 C53.043,20.507 54.48,21.102 55.668,22.29 C56.857,23.479 57.451,24.916 57.451,26.602 C57.451,28.288 56.857,29.743 55.668,30.969 C54.48,32.196 53.043,32.808 51.357,32.808 C49.672,32.808 48.234,32.196 47.046,30.969 C45.857,29.743 45.263,28.288 45.263,26.602" id="Fill-7" fill="#FFFFFF"></path>
                    <path d="M30.5491,26.602 C30.5491,24.916 31.1431,23.479 32.3321,22.29 C33.5201,21.102 34.9571,20.507 36.6431,20.507 C38.3281,20.507 39.7651,21.102 40.9541,22.29 C42.1431,23.479 42.7371,24.916 42.7371,26.602 C42.7371,28.288 42.1431,29.743 40.9541,30.969 C39.7651,32.196 38.3281,32.808 36.6431,32.808 C34.9571,32.808 33.5201,32.196 32.3321,30.969 C31.1431,29.743 30.5491,28.288 30.5491,26.602" id="Fill-9" fill="#FFFFFF"></path>
                    <path d="M19.5135,36.4897 C19.5135,34.8037 20.1075,33.3477 21.2965,32.1217 C22.4845,30.8957 23.9215,30.2827 25.6075,30.2827 C27.2935,30.2827 28.7305,30.8957 29.9185,32.1217 C31.1075,33.3477 31.7015,34.8037 31.7015,36.4897 C31.7015,38.1757 31.1075,39.6117 29.9185,40.8007 C28.7305,41.9897 27.2935,42.5837 25.6075,42.5837 C23.9215,42.5837 22.4845,41.9897 21.2965,40.8007 C20.1075,39.6117 19.5135,38.1757 19.5135,36.4897" id="Fill-11" fill="#FFFFFF"></path>
                    <path d="M44.2259,56.5502 C42.4859,56.5502 41.0769,55.1402 41.0769,53.4002 C41.0769,51.6602 42.4859,50.2512 44.2259,50.2512 C45.9649,50.2512 47.3749,51.6602 47.3749,53.4002 C47.3749,55.1402 45.9649,56.5502 44.2259,56.5502 M63.7149,60.2872 C63.3719,59.4822 63.3329,59.0222 63.5999,58.9072 C63.8659,58.7922 63.7509,58.3522 63.2539,57.5852 C62.7569,56.8192 62.5649,56.3972 62.6799,56.3202 C62.7939,56.2432 62.5449,55.8602 61.9319,55.1692 C61.3189,54.4802 61.0309,54.1162 61.0689,54.0782 C61.1059,54.0402 60.7999,53.6772 60.1489,52.9872 C59.4979,52.2972 59.1729,51.9522 59.1729,51.9522 L57.2189,49.9972 L57.2189,50.0002 C56.4519,49.1562 55.4169,47.9692 54.1139,46.4372 C52.8109,44.9052 51.8139,43.7172 51.1239,42.8732 C49.7459,41.1872 48.3289,40.1132 46.8719,39.6542 C46.5659,39.5002 46.2979,39.4232 46.0679,39.4232 C45.6849,39.3472 45.0339,39.3082 44.1129,39.3082 C43.2689,39.3082 42.6179,39.3472 42.1589,39.4232 C41.9299,39.4232 41.6619,39.5002 41.3539,39.6542 C39.8989,40.1142 38.4819,41.1882 37.1019,42.8732 C36.3349,43.7172 35.3199,44.9052 34.0559,46.4372 C32.7919,47.9692 31.7769,49.1562 31.0099,50.0002 C29.3229,51.6862 28.1539,52.8732 27.5029,53.5642 C26.8529,54.2532 26.1439,55.4032 25.3769,57.0112 C24.6099,58.6202 24.3419,60.1922 24.5729,61.7252 C25.4159,64.9442 27.3319,66.8602 30.3209,67.4732 C30.8569,67.5482 32.7149,67.3952 35.8949,67.0122 C39.0749,66.6292 41.7379,66.4392 43.8849,66.4392 L44.3459,66.4392 C46.4929,66.4372 49.1559,66.6282 52.3359,67.0122 C55.5159,67.3962 57.3739,67.5502 57.9099,67.4732 C60.8979,66.8602 62.8149,64.9442 63.6579,61.7252 C64.0389,61.5722 64.0579,61.0942 63.7149,60.2872" id="Fill-13" fill="#FFFFFF"></path>
                </g>
            </g>
        </g>
    </g>
</svg>