<?xml version="1.0" encoding="UTF-8"?>
<svg width="88px" height="88px" viewBox="0 0 88 88" version="1.1" xmlns="http://www.w3.org/2000/svg" xmlns:xlink="http://www.w3.org/1999/xlink">
    <!-- Generator: Sketch 55.1 (78136) - https://sketchapp.com -->
    <title>convenience_ico_admissions</title>
    <desc>Created with Sketch.</desc>
    <defs>
        <polygon id="path-1" points="0.0007 0 88 0 88 60.5813 0.0007 60.5813"></polygon>
    </defs>
    <g id="页面1" stroke="none" stroke-width="1" fill="none" fill-rule="evenodd">
        <g id="便民" transform="translate(-598.000000, -482.000000)">
            <g id="编组-2备份-7" transform="translate(558.000000, 442.000000)">
                <g id="convenience_ico_admissions" transform="translate(40.000000, 40.000000)">
                    <g id="编组">
                        <mask id="mask-2" fill="white">
                            <use xlink:href="#path-1"></use>
                        </mask>
                        <g id="Clip-2"></g>
                        <path d="M87.9487,41.9693 C86.8867,18.6123 67.6197,-0.0007 44.0007,-0.0007 C20.3807,-0.0007 1.1127,18.6123 0.0517,41.9693 C0.0207,42.6433 0.0007,43.3193 0.0007,43.9993 C0.0007,49.8673 1.1577,55.4623 3.2427,60.5813 C14.4177,52.9233 28.5797,48.3333 44.0007,48.3333 C59.4207,48.3333 73.5827,52.9233 84.7577,60.5813 C86.8427,55.4623 88.0007,49.8673 88.0007,43.9993 C88.0007,43.3193 87.9787,42.6433 87.9487,41.9693" id="Fill-1" fill="#ED6E95" mask="url(#mask-2)"></path>
                    </g>
                    <path d="M44.0004,87.9996 C62.4334,87.9996 78.2084,76.6606 84.7574,60.5816 C73.5824,52.9236 59.4204,48.3336 44.0004,48.3336 C28.5794,48.3336 14.4174,52.9236 3.2424,60.5816 C9.7914,76.6606 25.5674,87.9996 44.0004,87.9996" id="Fill-3" fill="#E80059"></path>
                    <path d="M42.6508,28.9478 C37.0548,28.9478 32.5018,33.6928 32.5018,39.5238 C32.5018,45.2588 36.9808,49.9978 42.4858,50.0918 L42.6508,50.0828 L42.7758,50.0958 C48.3078,50.0248 52.7978,45.2958 52.7978,39.5238 C52.7978,33.6928 48.2468,28.9478 42.6508,28.9478" id="Fill-5" fill="#FFFDFD"></path>
                    <path d="M55.0795,63.898 C54.9475,63.933 54.8165,63.95 54.6815,63.95 C53.9405,63.95 53.3005,63.451 53.1245,62.735 C52.4415,60.033 51.0785,57.697 49.1835,55.982 C48.5315,55.388 48.4795,54.372 49.0695,53.714 C49.3615,53.392 49.7585,53.206 50.1875,53.185 C50.6275,53.169 51.0245,53.312 51.3415,53.602 C53.7045,55.74 55.3975,58.627 56.2365,61.949 L56.2375,61.95 C56.4495,62.802 55.9305,63.676 55.0795,63.898 L55.0795,63.898 Z M42.5205,53.307 C37.7965,53.391 33.5545,57.27 32.1755,62.737 C31.9895,63.45 31.3505,63.944 30.6195,63.944 C30.4875,63.944 30.3505,63.926 30.2215,63.892 C29.8095,63.789 29.4605,63.528 29.2405,63.158 C29.0225,62.791 28.9595,62.359 29.0635,61.943 C30.1815,57.526 32.9235,53.793 36.4945,51.759 C32.0885,49.394 29.2945,44.701 29.2945,39.524 C29.2945,31.923 35.2855,25.741 42.6505,25.741 C50.0155,25.741 56.0065,31.923 56.0065,39.524 C56.0065,47.128 50.0155,53.313 42.6505,53.313 L42.5205,53.307 Z M70.0305,67.762 L61.5285,59.26 C65.4305,54.83 67.8015,49.02 67.8015,42.652 C67.8015,28.758 56.5435,17.502 42.6505,17.502 C28.7575,17.502 17.5005,28.758 17.5005,42.652 C17.5005,56.544 28.7575,67.802 42.6505,67.802 C49.0175,67.802 54.8275,65.431 59.2595,61.53 L67.7565,70.021 C68.0565,70.329 68.4605,70.499 68.8955,70.499 C69.3185,70.499 69.7205,70.335 70.0305,70.032 C70.6565,69.407 70.6565,68.388 70.0305,67.762 L70.0305,67.762 Z" id="Fill-7" fill="#FFFDFD"></path>
                </g>
            </g>
        </g>
    </g>
</svg>