<?xml version="1.0" encoding="UTF-8"?>
<svg width="126px" height="43px" viewBox="0 0 126 43" version="1.1" xmlns="http://www.w3.org/2000/svg" xmlns:xlink="http://www.w3.org/1999/xlink">
    <!-- Generator: Sketch 55.1 (78136) - https://sketchapp.com -->
    <title>hi,同城</title>
    <desc>Created with Sketch.</desc>
    <defs>
        <polygon id="path-1" points="0.926684568 0.128909091 11.0108765 0.128909091 11.0108765 22.5454545 0.926684568 22.5454545"></polygon>
    </defs>
    <g id="页面1" stroke="none" stroke-width="1" fill="none" fill-rule="evenodd">
        <g id="首页" transform="translate(-312.000000, -58.000000)">
            <g id="top">
                <g id="hi,同城" transform="translate(312.000000, 58.000000)">
                    <path d="M74.4512727,34.3873636 C74.9053636,34.3873636 75.2980909,34.2687273 75.6212727,34.0314545 C75.9485455,33.7941818 76.1121818,33.4996364 76.1121818,33.1437273 L76.1121818,26.901 C76.1121818,26.5450909 75.9485455,26.2505455 75.6212727,26.0132727 C75.2980909,25.776 74.9053636,25.6573636 74.4512727,25.6573636 L67.9549091,25.6573636 C67.4967273,25.6573636 67.1080909,25.776 66.7808182,26.0132727 C66.4535455,26.2505455 66.294,26.5450909 66.294,26.901 L66.294,33.1437273 C66.294,33.4996364 66.4535455,33.7941818 66.7808182,34.0314545 C67.1080909,34.2687273 67.4967273,34.3873636 67.9549091,34.3873636 L74.4512727,34.3873636 Z M78.264,36.8091818 C77.9367273,37.071 77.4867273,37.2837273 76.914,37.4514545 C76.3371818,37.6191818 75.8053636,37.701 75.3103636,37.701 L63.4508182,37.701 C62.9558182,37.701 62.5467273,37.5823636 62.2194545,37.3450909 C61.8921818,37.1078182 61.7285455,36.8091818 61.7285455,36.4532727 L61.7285455,23.5546364 C61.7285455,23.2232727 61.8921818,22.9369091 62.2194545,22.6996364 C62.5467273,22.4623636 62.9558182,22.3437273 63.4508182,22.3437273 L79.0044545,22.3437273 C79.4626364,22.3437273 79.8553636,22.4623636 80.1826364,22.6996364 C80.5099091,22.9369091 80.6776364,23.2232727 80.6776364,23.5546364 L80.6776364,33.8146364 C80.6776364,34.1705455 80.5630909,34.5591818 80.3299091,34.9764545 C80.1008182,35.3896364 79.8226364,35.7046364 79.4953636,35.9173636 L78.264,36.8091818 Z M80.7758182,17.8396364 C80.7758182,18.1996364 80.5999091,18.5064545 80.2562727,18.7600909 C79.9126364,19.0096364 79.5117273,19.1323636 79.0535455,19.1323636 L63.4508182,19.1323636 C62.9558182,19.1323636 62.5467273,19.0096364 62.2194545,18.7600909 C61.8921818,18.5064545 61.7285455,18.1996364 61.7285455,17.8396364 L61.7285455,17.0828182 C61.7285455,16.7228182 61.8921818,16.4200909 62.2194545,16.1828182 C62.5467273,15.9414545 62.9558182,15.8228182 63.4508182,15.8228182 L79.0535455,15.8228182 C79.5117273,15.8228182 79.9126364,15.9414545 80.2562727,16.1828182 C80.5999091,16.4200909 80.7758182,16.7228182 80.7758182,17.0828182 L80.7758182,17.8396364 Z M54.9049091,10.6519091 C54.9049091,10.3205455 55.0685455,10.0505455 55.3958182,9.83372727 C55.7230909,9.621 56.1158182,9.51463636 56.574,9.51463636 L85.779,9.51463636 C86.2371818,9.51463636 86.6380909,9.621 86.9817273,9.83372727 C87.3253636,10.0505455 87.5012727,10.296 87.5012727,10.5864545 L87.5012727,38.4128182 C87.5012727,38.7441818 87.3785455,39.1123636 87.129,39.5173636 C86.8794545,39.9223636 86.589,40.2332727 86.2617273,40.4419091 L85.0671818,41.3337273 C84.7030909,41.5996364 84.2326364,41.8082727 83.6558182,41.976 C83.0749091,42.1437273 82.5594545,42.2255455 82.1012727,42.2255455 L77.3885455,42.2255455 C76.9262727,42.2255455 76.5376364,42.1028182 76.2103636,41.8491818 C75.8830909,41.5955455 75.7194545,41.301 75.7194545,40.9655455 L75.7194545,40.1719091 C75.7194545,39.8119091 75.8830909,39.5132727 76.2103636,39.2719091 C76.5376364,39.0346364 76.9262727,38.9119091 77.3885455,38.9119091 L81.2667273,38.9119091 C81.6921818,38.9119091 82.0767273,38.7932727 82.4203636,38.5600909 C82.764,38.3187273 82.9358182,38.0241818 82.9358182,37.6682727 L82.9358182,14.0023636 C82.9358182,13.671 82.764,13.3805455 82.4203636,13.131 C82.0767273,12.8814545 81.6962727,12.7587273 81.2708182,12.7587273 L61.1353636,12.7587273 C60.6771818,12.7587273 60.2844545,12.8814545 59.9612727,13.131 C59.6299091,13.3805455 59.4703636,13.6750909 59.4703636,14.0064545 L59.4703636,40.9450909 C59.4703636,41.2764545 59.3026364,41.5669091 58.9712727,41.8164545 C58.6399091,42.066 58.2267273,42.1887273 57.7317273,42.1887273 L56.5903636,42.1887273 C56.1280909,42.1887273 55.7312727,42.066 55.3999091,41.8164545 C55.0685455,41.5669091 54.9049091,41.2764545 54.9049091,40.9450909 L54.9049091,10.6519091 Z" id="Fill-1" fill="#FFFFFF"></path>
                    <path d="M121.275,15.0713182 C120.751364,15.0713182 120.325909,15.1981364 119.998636,15.4476818 C119.671364,15.6972273 119.507727,15.9999545 119.507727,16.3558636 L119.507727,30.7149545 C119.507727,31.0504091 119.581364,31.3367727 119.728636,31.5699545 C119.875909,31.8113182 120.080455,31.9258636 120.342273,31.9258636 C120.571364,31.9258636 120.759545,31.8113182 120.906818,31.5699545 C121.054091,31.3367727 121.127727,31.0504091 121.127727,30.7149545 L121.127727,18.9576818 C121.127727,18.6017727 121.299545,18.3031364 121.643182,18.0658636 C121.986818,17.8285909 122.404091,17.7140455 122.895,17.7140455 L123.582273,17.7140455 C124.040455,17.7140455 124.433182,17.8285909 124.760455,18.0658636 C125.087727,18.3031364 125.251364,18.6017727 125.251364,18.9576818 L125.251364,33.9958636 C125.251364,34.3517727 125.087727,34.6545 124.760455,34.9040455 C124.433182,35.1535909 124.040455,35.2763182 123.582273,35.2763182 L121.275,35.2763182 C120.751364,35.2763182 120.325909,35.4031364 119.998636,35.6526818 C119.671364,35.9022273 119.507727,36.1926818 119.507727,36.5240455 L119.507727,37.6326818 C119.507727,38.0090455 119.671364,38.3199545 119.998636,38.5531364 C120.325909,38.7945 120.751364,38.9131364 121.275,38.9131364 L123.582273,38.9131364 C124.040455,38.9131364 124.433182,39.0276818 124.760455,39.2690455 C125.087727,39.5063182 125.251364,39.8049545 125.251364,40.1608636 L125.251364,40.9790455 C125.251364,41.3104091 125.087727,41.6008636 124.760455,41.8545 C124.433182,42.0999545 124.040455,42.2267727 123.582273,42.2267727 L117.004091,42.2267727 C116.545909,42.2267727 116.161364,42.0999545 115.850455,41.8545 C115.539545,41.6008636 115.384091,41.3104091 115.384091,40.9790455 L115.384091,16.3558636 C115.384091,15.9999545 115.220455,15.6972273 114.893182,15.4476818 C114.565909,15.1981364 114.156818,15.0713182 113.665909,15.0713182 L109.345909,15.0713182 C108.887727,15.0713182 108.486818,15.1981364 108.143182,15.4476818 C107.799545,15.6972273 107.627727,15.9999545 107.627727,16.3558636 L107.627727,19.4199545 C107.627727,19.7554091 107.799545,20.0499545 108.143182,20.3117727 C108.486818,20.5735909 108.887727,20.7045 109.345909,20.7045 L111.604091,20.7045 C112.127727,20.7045 112.553182,20.8231364 112.880455,21.0604091 C113.207727,21.2935909 113.371364,21.5840455 113.371364,21.9154091 L113.371364,40.9790455 C113.371364,41.3104091 113.207727,41.6008636 112.880455,41.8545 C112.553182,42.0999545 112.127727,42.2267727 111.604091,42.2267727 L111.064091,42.2267727 C110.573182,42.2267727 110.164091,42.0999545 109.836818,41.8545 C109.509545,41.6008636 109.345909,41.3104091 109.345909,40.9790455 L109.345909,25.2617727 C109.345909,24.9058636 109.247727,24.6113182 109.051364,24.3699545 C108.855,24.1367727 108.642273,24.0181364 108.413182,24.0181364 C108.184091,24.0181364 107.995909,24.1367727 107.848636,24.3699545 C107.701364,24.6113182 107.627727,24.9058636 107.627727,25.2617727 L107.627727,40.9790455 C107.627727,41.3104091 107.46,41.6008636 107.120455,41.8545 C106.776818,42.0999545 106.363636,42.2267727 105.880909,42.2267727 L103.062273,42.2267727 C102.820909,42.2267727 102.604091,42.0999545 102.415909,41.8545 C102.223636,41.6008636 102.129545,41.3104091 102.129545,40.9790455 L102.129545,40.1608636 C102.129545,39.8049545 102.182727,39.5063182 102.285,39.2690455 C102.387273,39.0276818 102.493636,38.9131364 102.595909,38.9131364 C102.771818,38.9131364 102.890455,38.7945 102.96,38.5531364 C103.029545,38.3199545 103.062273,38.0090455 103.062273,37.6326818 L103.062273,13.0054091 C103.062273,12.6495 103.242273,12.3549545 103.602273,12.1135909 C103.962273,11.8804091 104.387727,11.7576818 104.874545,11.7576818 L113.690455,11.7576818 C114.181364,11.7576818 114.590455,11.6595 114.917727,11.4549545 C115.240909,11.2545 115.404545,10.9885909 115.404545,10.6531364 C115.404545,10.3217727 115.568182,10.0476818 115.895455,9.83495455 C116.222727,9.62222727 116.631818,9.51586364 117.118636,9.51586364 L117.805909,9.51586364 C118.296818,9.51586364 118.705909,9.62222727 119.033182,9.83495455 C119.356364,10.0476818 119.52,10.3217727 119.52,10.6531364 C119.52,10.9885909 119.593636,11.2545 119.740909,11.4549545 C119.888182,11.6595 120.092727,11.7576818 120.354545,11.7576818 C120.583636,11.7576818 120.767727,11.6595 120.919091,11.4549545 C121.062273,11.2545 121.135909,10.9885909 121.135909,10.6531364 C121.135909,10.3217727 121.307727,10.0476818 121.651364,9.83495455 C121.995,9.62222727 122.412273,9.51586364 122.899091,9.51586364 L123.586364,9.51586364 C124.044545,9.51586364 124.433182,9.6345 124.764545,9.87177273 C125.087727,10.1090455 125.251364,10.3913182 125.251364,10.7267727 L125.251364,13.8235909 C125.251364,14.1795 125.087727,14.4781364 124.760455,14.7154091 C124.433182,14.9567727 124.040455,15.0713182 123.582273,15.0713182 L121.275,15.0713182 Z M99.3804545,13.8972273 C99.3804545,14.2285909 99.4704545,14.5190455 99.6504545,14.7726818 C99.8304545,15.0181364 100.051364,15.1449545 100.313182,15.1449545 C100.542273,15.1449545 100.755,15.2717727 100.951364,15.5172273 C101.147727,15.7667727 101.245909,16.0572273 101.245909,16.3885909 L101.245909,17.2108636 C101.245909,17.5422273 101.147727,17.8367727 100.951364,18.0822273 C100.755,18.3358636 100.542273,18.4585909 100.313182,18.4585909 C100.051364,18.4585909 99.8304545,18.5813182 99.6504545,18.8308636 C99.4704545,19.0804091 99.3804545,19.3749545 99.3804545,19.7063182 L99.3804545,37.6326818 C99.3804545,38.0090455 99.4704545,38.3199545 99.6504545,38.5531364 C99.8304545,38.7945 100.051364,38.9131364 100.313182,38.9131364 C100.542273,38.9131364 100.755,39.0276818 100.951364,39.2690455 C101.147727,39.5063182 101.245909,39.8049545 101.245909,40.1608636 L101.245909,40.9790455 C101.245909,41.3104091 101.065909,41.6008636 100.705909,41.8545 C100.345909,42.0999545 99.9368182,42.2267727 99.4786364,42.2267727 L94.1277273,42.2267727 C93.6695455,42.2267727 93.2768182,42.0999545 92.9495455,41.8545 C92.6222727,41.6008636 92.4586364,41.3104091 92.4586364,40.9790455 L92.4586364,40.1608636 C92.4586364,39.8049545 92.5731818,39.5063182 92.8022727,39.2690455 C93.0313636,39.0276818 93.2931818,38.9131364 93.5877273,38.9131364 C93.9477273,38.9131364 94.2422727,38.7945 94.4713636,38.5531364 C94.7004545,38.3199545 94.815,38.0090455 94.815,37.6326818 L94.815,19.7063182 C94.815,19.3749545 94.7004545,19.0804091 94.4713636,18.8308636 C94.2422727,18.5813182 93.9477273,18.4585909 93.5877273,18.4585909 C93.2931818,18.4585909 93.0313636,18.3358636 92.8022727,18.0822273 C92.5731818,17.8367727 92.4586364,17.5422273 92.4586364,17.2108636 L92.4586364,16.3885909 C92.4586364,16.0572273 92.5731818,15.7667727 92.8022727,15.5172273 C93.0313636,15.2717727 93.2931818,15.1449545 93.5877273,15.1449545 C93.9477273,15.1449545 94.2422727,15.0181364 94.4713636,14.7726818 C94.7004545,14.5190455 94.815,14.2285909 94.815,13.8972273 L94.815,10.7267727 C94.815,10.3913182 94.9786364,10.1090455 95.3059091,9.87177273 C95.6331818,9.6345 96.0422727,9.51586364 96.5331818,9.51586364 L97.6131818,9.51586364 C98.0713636,9.51586364 98.4804545,9.6345 98.8404545,9.87177273 C99.2004545,10.1090455 99.3804545,10.3913182 99.3804545,10.7267727 L99.3804545,13.8972273 Z" id="Fill-3" fill="#FFFFFF"></path>
                    <path d="M50.1574091,5.643 C47.2405909,0.361636364 40.5969545,-1.55290909 35.3155909,1.36390909 C34.8287727,1.63390909 34.6487727,2.24345455 34.9187727,2.73027273 C35.1887727,3.21709091 35.8024091,3.393 36.2851364,3.12709091 C40.5969545,0.746181818 46.0174091,2.30890909 48.3983182,6.61663636 C48.6642273,7.09936364 49.2778636,7.27936364 49.7646818,7.00936364 C50.2515,6.74345455 50.4274091,6.12981818 50.1574091,5.643" id="Fill-5" fill="#FFFFFF"></path>
                    <path d="M45.855,7.63240909 C44.2636364,4.74831818 40.6309091,3.70104545 37.7468182,5.2965 C37.26,5.56240909 37.0840909,6.17604545 37.3540909,6.66286364 C37.6240909,7.14968182 38.2336364,7.32559091 38.7204545,7.05559091 C40.635,6.00422727 43.0404545,6.69559091 44.0959091,8.60604545 C44.3618182,9.08877273 44.9754545,9.26468182 45.4622727,8.99877273 C45.9490909,8.73286364 46.125,8.11922727 45.855,7.63240909" id="Fill-7" fill="#FFFFFF"></path>
                    <path d="M12.0268636,13.6251818 L11.2495909,17.7406364 C10.8282273,19.9538182 12.5300455,22.0074545 14.7841364,22.0074545 L21.1332273,22.0074545 C22.8595909,22.0074545 24.3445909,20.7760909 24.6636818,19.0783636 L25.9523182,12.2874545 C26.2714091,10.5897273 27.7564091,9.35836364 29.4868636,9.35836364 L29.5400455,9.35836364 C31.7941364,9.35836364 33.4918636,11.4079091 33.0745909,13.6210909 L28.2268636,39.3365455 C27.9077727,41.0383636 26.4227727,42.2697273 24.6923182,42.2697273 L24.6391364,42.2697273 C22.3850455,42.2697273 20.6873182,40.2201818 21.1045909,38.007 L22.0905,32.7665455 C22.5077727,30.5492727 20.8059545,28.5038182 18.5559545,28.5038182 L12.1536818,28.5038182 C10.4232273,28.5038182 8.93822727,29.7351818 8.61913636,31.437 L7.13413636,39.3365455 C6.81504545,41.0383636 5.33004545,42.2697273 3.59959091,42.2697273 C1.3455,42.2697273 -0.352227273,40.2201818 0.0650454545,38.007 L4.90868182,12.2915455 C5.22777273,10.5897273 6.71277273,9.35836364 8.44322727,9.35836364 L8.49231818,9.35836364 C10.7464091,9.35836364 12.4441364,11.4079091 12.0268636,13.6251818" id="Fill-9" fill="#FFFFFF"></path>
                    <g id="编组" transform="translate(30.636364, 19.851091)">
                        <mask id="mask-2" fill="white">
                            <use xlink:href="#path-1"></use>
                        </mask>
                        <g id="Clip-12"></g>
                        <path d="M3.82463636,3.07845455 C4.14781818,1.36845455 5.64509091,0.128909091 7.38781818,0.128909091 C9.65418182,0.128909091 11.3682727,2.19072727 10.9469091,4.42436364 L8.11190909,19.5934545 C7.78872727,21.3034545 6.29554545,22.5470909 4.55281818,22.5470909 C2.28236364,22.5470909 0.572363636,20.4852727 0.989636364,18.2516364 L3.82463636,3.07845455 Z" id="Fill-11" fill="#FFFFFF" mask="url(#mask-2)"></path>
                    </g>
                    <path d="M36.4647273,12.4347273 C36.7879091,10.7247273 38.2810909,9.48518182 40.0238182,9.48518182 C42.2942727,9.48518182 44.0042727,11.547 43.587,13.7806364 L43.5951818,13.8010909 C43.272,15.5151818 41.7747273,16.7547273 40.0360909,16.7547273 C37.7615455,16.7547273 36.0515455,14.6929091 36.4729091,12.4633636 L36.4647273,12.4347273 Z" id="Fill-13" fill="#FFFFFF"></path>
                </g>
            </g>
        </g>
    </g>
</svg>